%TF.GenerationSoftware,KiCad,Pcbnew,(6.0.0-0)*%
%TF.CreationDate,2022-06-13T23:48:26-07:00*%
%TF.ProjectId,max20499_breakout,6d617832-3034-4393-995f-627265616b6f,rev?*%
%TF.SameCoordinates,Original*%
%TF.FileFunction,Paste,Top*%
%TF.FilePolarity,Positive*%
%FSLAX46Y46*%
G04 Gerber Fmt 4.6, Leading zero omitted, Abs format (unit mm)*
G04 Created by KiCad (PCBNEW (6.0.0-0)) date 2022-06-13 23:48:26*
%MOMM*%
%LPD*%
G01*
G04 APERTURE LIST*
G04 Aperture macros list*
%AMRoundRect*
0 Rectangle with rounded corners*
0 $1 Rounding radius*
0 $2 $3 $4 $5 $6 $7 $8 $9 X,Y pos of 4 corners*
0 Add a 4 corners polygon primitive as box body*
4,1,4,$2,$3,$4,$5,$6,$7,$8,$9,$2,$3,0*
0 Add four circle primitives for the rounded corners*
1,1,$1+$1,$2,$3*
1,1,$1+$1,$4,$5*
1,1,$1+$1,$6,$7*
1,1,$1+$1,$8,$9*
0 Add four rect primitives between the rounded corners*
20,1,$1+$1,$2,$3,$4,$5,0*
20,1,$1+$1,$4,$5,$6,$7,0*
20,1,$1+$1,$6,$7,$8,$9,0*
20,1,$1+$1,$8,$9,$2,$3,0*%
%AMFreePoly0*
4,1,17,0.000354,1.075354,0.000500,1.075000,0.000500,0.000000,0.000354,-0.000354,0.000000,-0.000500,-0.900000,-0.000500,-0.900354,-0.000354,-0.900500,0.000000,-0.900500,0.400000,-0.900354,0.400354,-0.900000,0.400500,-0.450500,0.400500,-0.450500,1.075000,-0.450354,1.075354,-0.450000,1.075500,0.000000,1.075500,0.000354,1.075354,0.000354,1.075354,$1*%
%AMFreePoly1*
4,1,17,0.450354,1.075354,0.450500,1.075000,0.450500,0.400500,0.900000,0.400500,0.900354,0.400354,0.900500,0.400000,0.900500,0.000000,0.900354,-0.000354,0.900000,-0.000500,0.000000,-0.000500,-0.000354,-0.000354,-0.000500,0.000000,-0.000500,1.075000,-0.000354,1.075354,0.000000,1.075500,0.450000,1.075500,0.450354,1.075354,0.450354,1.075354,$1*%
%AMFreePoly2*
4,1,17,0.000354,0.000354,0.000500,0.000000,0.000500,-0.350000,0.000354,-0.350354,0.000000,-0.350500,-0.975000,-0.350500,-0.975354,-0.350354,-0.975500,-0.350000,-0.975500,-0.250500,-1.550000,-0.250500,-1.550354,-0.250354,-1.550500,-0.250000,-1.550500,0.000000,-1.550354,0.000354,-1.550000,0.000500,0.000000,0.000500,0.000354,0.000354,0.000354,0.000354,$1*%
%AMFreePoly3*
4,1,29,0.000035,0.000035,0.000050,0.000000,0.000050,-0.900000,0.000035,-0.900035,0.000000,-0.900050,-0.499950,-0.900050,-0.499950,-1.600000,-0.499965,-1.600035,-0.500000,-1.600050,-0.950000,-1.600050,-0.950035,-1.600035,-0.950050,-1.600000,-0.950050,-0.900050,-1.575000,-0.900050,-1.575035,-0.900035,-1.575050,-0.900000,-1.575050,-0.650000,-1.575035,-0.649965,-1.575000,-0.649950,-0.950050,-0.649950,
-0.950050,-0.250050,-1.575000,-0.250050,-1.575035,-0.250035,-1.575050,-0.250000,-1.575050,0.000000,-1.575035,0.000035,-1.575000,0.000050,0.000000,0.000050,0.000035,0.000035,0.000035,0.000035,$1*%
%AMFreePoly4*
4,1,29,1.575035,0.000035,1.575050,0.000000,1.575050,-0.250000,1.575035,-0.250035,1.575000,-0.250050,0.950050,-0.250050,0.950050,-0.649950,1.575000,-0.649950,1.575035,-0.649965,1.575050,-0.650000,1.575050,-0.900000,1.575035,-0.900035,1.575000,-0.900050,0.950050,-0.900050,0.950050,-1.600000,0.950035,-1.600035,0.950000,-1.600050,0.500000,-1.600050,0.499965,-1.600035,0.499950,-1.600000,
0.499950,-0.900050,0.000000,-0.900050,-0.000035,-0.900035,-0.000050,-0.900000,-0.000050,0.000000,-0.000035,0.000035,0.000000,0.000050,1.575000,0.000050,1.575035,0.000035,1.575035,0.000035,$1*%
%AMFreePoly5*
4,1,17,1.550354,0.000354,1.550500,0.000000,1.550500,-0.250000,1.550354,-0.250354,1.550000,-0.250500,0.975500,-0.250500,0.975500,-0.350000,0.975354,-0.350354,0.975000,-0.350500,0.000000,-0.350500,-0.000354,-0.350354,-0.000500,-0.350000,-0.000500,0.000000,-0.000354,0.000354,0.000000,0.000500,1.550000,0.000500,1.550354,0.000354,1.550354,0.000354,$1*%
G04 Aperture macros list end*
%ADD10RoundRect,0.135000X-0.185000X0.135000X-0.185000X-0.135000X0.185000X-0.135000X0.185000X0.135000X0*%
%ADD11RoundRect,0.135000X0.135000X0.185000X-0.135000X0.185000X-0.135000X-0.185000X0.135000X-0.185000X0*%
%ADD12RoundRect,0.225000X-0.250000X0.225000X-0.250000X-0.225000X0.250000X-0.225000X0.250000X0.225000X0*%
%ADD13RoundRect,0.250000X-0.475000X0.250000X-0.475000X-0.250000X0.475000X-0.250000X0.475000X0.250000X0*%
%ADD14RoundRect,0.250000X0.650000X-0.325000X0.650000X0.325000X-0.650000X0.325000X-0.650000X-0.325000X0*%
%ADD15RoundRect,0.225000X-0.225000X-0.250000X0.225000X-0.250000X0.225000X0.250000X-0.225000X0.250000X0*%
%ADD16R,0.650000X0.700000*%
%ADD17FreePoly0,0.000000*%
%ADD18R,0.350000X1.025000*%
%ADD19R,0.300000X0.925000*%
%ADD20FreePoly1,0.000000*%
%ADD21R,0.925000X0.300000*%
%ADD22FreePoly2,0.000000*%
%ADD23C,0.100000*%
%ADD24FreePoly3,0.000000*%
%ADD25R,0.350000X1.925000*%
%ADD26FreePoly4,0.000000*%
%ADD27FreePoly5,0.000000*%
%ADD28R,2.700000X3.850000*%
G04 APERTURE END LIST*
D10*
%TO.C,R4*%
X132630000Y-88750000D03*
X132630000Y-89770000D03*
%TD*%
%TO.C,R3*%
X131690000Y-86170000D03*
X131690000Y-87190000D03*
%TD*%
D11*
%TO.C,R2*%
X152740000Y-91710000D03*
X151720000Y-91710000D03*
%TD*%
%TO.C,R1*%
X157650000Y-91700000D03*
X156630000Y-91700000D03*
%TD*%
D12*
%TO.C,C2*%
X127220000Y-93065000D03*
X127220000Y-94615000D03*
%TD*%
D13*
%TO.C,C15*%
X121750000Y-92890000D03*
X121750000Y-94790000D03*
%TD*%
D14*
%TO.C,C8*%
X126030000Y-103635000D03*
X126030000Y-100685000D03*
%TD*%
D13*
%TO.C,C1*%
X124620000Y-94790000D03*
X124620000Y-92890000D03*
%TD*%
D15*
%TO.C,C5*%
X135215000Y-87840000D03*
X136765000Y-87840000D03*
%TD*%
D14*
%TO.C,C7*%
X137950000Y-103635000D03*
X137950000Y-100685000D03*
%TD*%
D16*
%TO.C,U1*%
X131530000Y-92980000D03*
D17*
X130380000Y-92055000D03*
D18*
X130755000Y-91492500D03*
D19*
X131280000Y-91442500D03*
X131780000Y-91442500D03*
D18*
X132305000Y-91492500D03*
D20*
X132680000Y-92055000D03*
D21*
X133117500Y-92455000D03*
X133117500Y-92955000D03*
D22*
X133580000Y-93330000D03*
D23*
X132995000Y-94265000D03*
D24*
X133580000Y-93980000D03*
D25*
X131530000Y-94617500D03*
D26*
X129480000Y-93980000D03*
D23*
X130010000Y-94275000D03*
D27*
X129480000Y-93330000D03*
D21*
X129942500Y-92955000D03*
X129942500Y-92455000D03*
%TD*%
D14*
%TO.C,C9*%
X121870000Y-103635000D03*
X121870000Y-100685000D03*
%TD*%
D13*
%TO.C,C16*%
X141630000Y-94785000D03*
X141630000Y-92885000D03*
%TD*%
D28*
%TO.C,L1*%
X131530000Y-98735000D03*
X131530000Y-105285000D03*
%TD*%
D14*
%TO.C,C10*%
X141720000Y-103635000D03*
X141720000Y-100685000D03*
%TD*%
D12*
%TO.C,C4*%
X136290000Y-93075000D03*
X136290000Y-94625000D03*
%TD*%
%TO.C,C6*%
X125520000Y-90525000D03*
X125520000Y-88975000D03*
%TD*%
D13*
%TO.C,C3*%
X138720000Y-92885000D03*
X138720000Y-94785000D03*
%TD*%
M02*
