M48
; DRILL file {KiCad (6.0.0-0)} date Monday, June 13, 2022 at 11:56:01 PM
; FORMAT={-:-/ absolute / inch / decimal}
; #@! TF.CreationDate,2022-06-13T23:56:01-07:00
; #@! TF.GenerationSoftware,Kicad,Pcbnew,(6.0.0-0)
; #@! TF.FileFunction,Plated,1,2,PTH
FMAT,2
INCH
; #@! TA.AperFunction,Plated,PTH,ViaDrill
T1C0.0157
; #@! TA.AperFunction,Plated,PTH,ComponentDrill
T2C0.0394
; #@! TA.AperFunction,Plated,PTH,ComponentDrill
T3C0.0551
%
G90
G05
T1
X4.1224Y-3.9358
X4.1881Y-3.9358
X4.2538Y-3.9358
X4.3194Y-3.9358
X4.3851Y-3.9358
X4.4507Y-3.9358
X4.4524Y-3.824
X4.4524Y-3.8831
X4.4732Y-3.4543
X4.4736Y-3.513
X4.4744Y-3.5661
X4.5164Y-3.9358
X4.518Y-3.824
X4.518Y-3.8831
X4.5316Y-3.4543
X4.532Y-3.513
X4.5328Y-3.5661
X4.5821Y-3.9358
X4.5837Y-3.824
X4.5837Y-3.8831
X4.59Y-3.4543
X4.5904Y-3.513
X4.5912Y-3.5661
X4.6477Y-3.9358
X4.6484Y-3.4543
X4.6488Y-3.513
X4.6493Y-3.824
X4.6493Y-3.8831
X4.6496Y-3.5661
X4.7067Y-3.4543
X4.7071Y-3.513
X4.7079Y-3.5661
X4.7134Y-3.9358
X4.715Y-3.824
X4.715Y-3.8831
X4.765Y-4.1827
X4.765Y-4.2407
X4.765Y-4.2988
X4.7651Y-3.4543
X4.7655Y-3.513
X4.7663Y-3.5661
X4.7807Y-3.824
X4.7807Y-3.8831
X4.8235Y-3.4543
X4.8239Y-3.513
X4.8247Y-3.5661
X4.8291Y-4.1829
X4.8291Y-4.2409
X4.8291Y-4.299
X4.8463Y-3.824
X4.8463Y-3.8831
X4.8819Y-3.4543
X4.8823Y-3.513
X4.8831Y-3.5661
X4.8988Y-4.1817
X4.8988Y-4.2398
X4.8988Y-4.2978
X4.912Y-3.824
X4.912Y-3.8831
X4.972Y-4.1817
X4.972Y-4.2398
X4.972Y-4.2978
X4.9776Y-3.824
X4.9776Y-3.8831
X5.0138Y-3.6031
X5.0697Y-4.2766
X5.072Y-3.7976
X5.0811Y-3.563
X5.1339Y-4.2768
X5.1354Y-3.4264
X5.2035Y-4.2756
X5.2646Y-3.4508
X5.2768Y-4.2756
X5.3575Y-3.5972
X5.3578Y-3.9031
X5.3594Y-3.7913
X5.3594Y-3.8504
X5.3728Y-4.1817
X5.3728Y-4.2398
X5.3728Y-4.2978
X5.3987Y-3.5512
X5.416Y-3.5972
X5.4235Y-3.9031
X5.4251Y-3.7913
X5.4251Y-3.8504
X5.4437Y-4.1829
X5.4437Y-4.2409
X5.4437Y-4.299
X5.4573Y-3.5512
X5.4746Y-3.5972
X5.4892Y-3.9031
X5.4908Y-3.7913
X5.4908Y-3.8504
X5.5158Y-3.5512
X5.5224Y-4.1829
X5.5224Y-4.2409
X5.5224Y-4.299
X5.5332Y-3.5972
X5.5548Y-3.9031
X5.5564Y-3.7913
X5.5564Y-3.8504
X5.5642Y-3.448
X5.5744Y-3.5512
X5.5917Y-3.5972
X5.6035Y-4.1809
X5.6035Y-4.239
X5.6035Y-4.297
X5.6205Y-3.9031
X5.6221Y-3.7913
X5.6221Y-3.8504
X5.6724Y-3.5886
T2
X5.915Y-3.4945
X6.015Y-3.4945
X6.115Y-3.4945
X6.215Y-3.4945
T3
X3.8051Y-3.5543
X3.8051Y-3.8425
X4.0051Y-3.5543
X4.0051Y-3.8425
X6.0654Y-3.8425
X6.0654Y-4.1354
X6.2654Y-3.8425
X6.2654Y-4.1354
T0
M30
