%TF.GenerationSoftware,KiCad,Pcbnew,(6.0.0-0)*%
%TF.CreationDate,2022-06-13T23:55:57-07:00*%
%TF.ProjectId,max20499_breakout,6d617832-3034-4393-995f-627265616b6f,rev?*%
%TF.SameCoordinates,Original*%
%TF.FileFunction,Copper,L2,Bot*%
%TF.FilePolarity,Positive*%
%FSLAX46Y46*%
G04 Gerber Fmt 4.6, Leading zero omitted, Abs format (unit mm)*
G04 Created by KiCad (PCBNEW (6.0.0-0)) date 2022-06-13 23:55:57*
%MOMM*%
%LPD*%
G01*
G04 APERTURE LIST*
G04 Aperture macros list*
%AMRoundRect*
0 Rectangle with rounded corners*
0 $1 Rounding radius*
0 $2 $3 $4 $5 $6 $7 $8 $9 X,Y pos of 4 corners*
0 Add a 4 corners polygon primitive as box body*
4,1,4,$2,$3,$4,$5,$6,$7,$8,$9,$2,$3,0*
0 Add four circle primitives for the rounded corners*
1,1,$1+$1,$2,$3*
1,1,$1+$1,$4,$5*
1,1,$1+$1,$6,$7*
1,1,$1+$1,$8,$9*
0 Add four rect primitives between the rounded corners*
20,1,$1+$1,$2,$3,$4,$5,0*
20,1,$1+$1,$4,$5,$6,$7,0*
20,1,$1+$1,$6,$7,$8,$9,0*
20,1,$1+$1,$8,$9,$2,$3,0*%
G04 Aperture macros list end*
%TA.AperFunction,ComponentPad*%
%ADD10C,2.520000*%
%TD*%
%TA.AperFunction,ComponentPad*%
%ADD11R,1.700000X1.700000*%
%TD*%
%TA.AperFunction,ComponentPad*%
%ADD12O,1.700000X1.700000*%
%TD*%
%TA.AperFunction,SMDPad,CuDef*%
%ADD13RoundRect,0.250000X-1.100000X0.325000X-1.100000X-0.325000X1.100000X-0.325000X1.100000X0.325000X0*%
%TD*%
%TA.AperFunction,SMDPad,CuDef*%
%ADD14RoundRect,0.250000X0.650000X-0.325000X0.650000X0.325000X-0.650000X0.325000X-0.650000X-0.325000X0*%
%TD*%
%TA.AperFunction,SMDPad,CuDef*%
%ADD15RoundRect,0.250000X-1.025000X0.787500X-1.025000X-0.787500X1.025000X-0.787500X1.025000X0.787500X0*%
%TD*%
%TA.AperFunction,ViaPad*%
%ADD16C,0.800000*%
%TD*%
%TA.AperFunction,Conductor*%
%ADD17C,0.250000*%
%TD*%
%TA.AperFunction,Conductor*%
%ADD18C,1.000000*%
%TD*%
G04 APERTURE END LIST*
D10*
%TO.P,J1,1,Pin_1*%
%TO.N,GND*%
X96650000Y-97600000D03*
X101730000Y-97600000D03*
%TD*%
D11*
%TO.P,J3,1,Pin_1*%
%TO.N,GND*%
X150240000Y-88760000D03*
D12*
%TO.P,J3,2,Pin_2*%
%TO.N,/SDA*%
X152780000Y-88760000D03*
%TO.P,J3,3,Pin_3*%
%TO.N,/SCL*%
X155320000Y-88760000D03*
%TO.P,J3,4,Pin_4*%
%TO.N,Net-(J3-Pad4)*%
X157860000Y-88760000D03*
%TD*%
D10*
%TO.P,J2,1,Pin_1*%
%TO.N,/VIN*%
X96650000Y-90280000D03*
X101730000Y-90280000D03*
%TD*%
%TO.P,J4,1,Pin_1*%
%TO.N,/VOUT*%
X154060000Y-105040000D03*
X159140000Y-105040000D03*
%TD*%
%TO.P,J5,1,Pin_1*%
%TO.N,GND*%
X154060000Y-97600000D03*
X159140000Y-97600000D03*
%TD*%
D13*
%TO.P,C19,1*%
%TO.N,/VIN*%
X115480000Y-92177500D03*
%TO.P,C19,2*%
%TO.N,GND*%
X115480000Y-95127500D03*
%TD*%
D14*
%TO.P,C12,1*%
%TO.N,/VOUT*%
X121940000Y-103645000D03*
%TO.P,C12,2*%
%TO.N,GND*%
X121940000Y-100695000D03*
%TD*%
D13*
%TO.P,C18,1*%
%TO.N,/VIN*%
X111790000Y-92127500D03*
%TO.P,C18,2*%
%TO.N,GND*%
X111790000Y-95077500D03*
%TD*%
D14*
%TO.P,C14,1*%
%TO.N,/VOUT*%
X126090000Y-103645000D03*
%TO.P,C14,2*%
%TO.N,GND*%
X126090000Y-100695000D03*
%TD*%
D15*
%TO.P,C17,1*%
%TO.N,/VIN*%
X107560000Y-90300000D03*
%TO.P,C17,2*%
%TO.N,GND*%
X107560000Y-96525000D03*
%TD*%
D13*
%TO.P,C21,1*%
%TO.N,/VIN*%
X123120000Y-92227500D03*
%TO.P,C21,2*%
%TO.N,GND*%
X123120000Y-95177500D03*
%TD*%
D14*
%TO.P,C13,1*%
%TO.N,/VOUT*%
X137860000Y-103645000D03*
%TO.P,C13,2*%
%TO.N,GND*%
X137860000Y-100695000D03*
%TD*%
%TO.P,C11,1*%
%TO.N,/VOUT*%
X141700000Y-103645000D03*
%TO.P,C11,2*%
%TO.N,GND*%
X141700000Y-100695000D03*
%TD*%
D13*
%TO.P,C20,1*%
%TO.N,/VIN*%
X119230000Y-92227500D03*
%TO.P,C20,2*%
%TO.N,GND*%
X119230000Y-95177500D03*
%TD*%
D16*
%TO.N,/VOUT*%
X128770000Y-108625000D03*
X130400000Y-108630000D03*
X134030000Y-108600000D03*
X132170000Y-108600000D03*
X142330000Y-109145000D03*
X142330000Y-106195000D03*
X142330000Y-107670000D03*
X140270000Y-109195000D03*
X140270000Y-106245000D03*
X140270000Y-107720000D03*
X138270000Y-109195000D03*
X138270000Y-106245000D03*
X138270000Y-107720000D03*
X136470000Y-109165000D03*
X136470000Y-106215000D03*
X136470000Y-107690000D03*
X126290000Y-109165000D03*
X126290000Y-106215000D03*
X126290000Y-107690000D03*
X124430000Y-109165000D03*
X124430000Y-106215000D03*
X124430000Y-107690000D03*
X122660000Y-109195000D03*
X122660000Y-106245000D03*
X122660000Y-107720000D03*
X121030000Y-106240000D03*
X121030000Y-107715000D03*
X121030000Y-109190000D03*
%TO.N,/VIN*%
X138615000Y-90200000D03*
X137127500Y-90200000D03*
X140102500Y-90200000D03*
X141590000Y-90200000D03*
X113620000Y-87740000D03*
X118068571Y-87740000D03*
X116585714Y-87740000D03*
X124000000Y-87740000D03*
X121034285Y-87740000D03*
X119551428Y-87740000D03*
X122517142Y-87740000D03*
X115102857Y-87740000D03*
%TO.N,GND*%
X139465554Y-97800000D03*
X137797777Y-97800000D03*
X142801108Y-97800000D03*
X136130000Y-97800000D03*
X141133331Y-97800000D03*
X141092216Y-99140000D03*
X137756662Y-99140000D03*
X142801108Y-96300000D03*
X139465554Y-96300000D03*
X141133331Y-96300000D03*
X137797777Y-96300000D03*
X136130000Y-96300000D03*
X136088885Y-99140000D03*
X142760000Y-99140000D03*
X139424439Y-99140000D03*
X113090000Y-97130000D03*
X126432216Y-97130000D03*
X116425554Y-97130000D03*
X123096662Y-97130000D03*
X121428885Y-97130000D03*
X119761108Y-97130000D03*
X124764439Y-97130000D03*
X118093331Y-97130000D03*
X114757777Y-97130000D03*
X113090000Y-98630000D03*
X126432216Y-98630000D03*
X116425554Y-98630000D03*
X123096662Y-98630000D03*
X121428885Y-98630000D03*
X119761108Y-98630000D03*
X124764439Y-98630000D03*
X118093331Y-98630000D03*
X114757777Y-98630000D03*
X119720000Y-99970000D03*
X118052216Y-99970000D03*
X116384439Y-99970000D03*
X114716662Y-99970000D03*
X113048885Y-99970000D03*
X111381108Y-99970000D03*
X109713331Y-99970000D03*
X108045554Y-99970000D03*
X106377777Y-99970000D03*
X104710000Y-99970000D03*
%TO.N,/VIN*%
X115112857Y-89230000D03*
X116595714Y-89230000D03*
X113630000Y-89230000D03*
X121044285Y-89230000D03*
X122527142Y-89230000D03*
X119561428Y-89230000D03*
X124010000Y-89230000D03*
X118078571Y-89230000D03*
X113650000Y-90580000D03*
X115132857Y-90580000D03*
X116615714Y-90580000D03*
X121064285Y-90580000D03*
X118098571Y-90580000D03*
X119581428Y-90580000D03*
X122547142Y-90580000D03*
X124030000Y-90580000D03*
%TO.N,/LX1*%
X128830000Y-96460000D03*
X127350000Y-91520000D03*
%TO.N,GND*%
X144080000Y-91150000D03*
%TO.N,/VIN*%
X130440000Y-87030000D03*
%TO.N,GND*%
X141330000Y-87580000D03*
%TO.N,/VIN*%
X133720000Y-87650000D03*
X142030000Y-91370000D03*
X140542500Y-91370000D03*
X139055000Y-91370000D03*
X137567500Y-91370000D03*
X136080000Y-91370000D03*
X129060000Y-90500000D03*
%TD*%
D17*
%TO.N,/LX1*%
X129130000Y-96160000D02*
X129130000Y-93300000D01*
X128830000Y-96460000D02*
X129130000Y-96160000D01*
X129130000Y-93300000D02*
X127350000Y-91520000D01*
D18*
%TO.N,GND*%
X144080000Y-90240000D02*
X145560000Y-88760000D01*
X145560000Y-88760000D02*
X150240000Y-88760000D01*
D17*
X141330000Y-87580000D02*
X144080000Y-90240000D01*
D18*
X144080000Y-90240000D02*
X144080000Y-91150000D01*
X144080000Y-91150000D02*
X144080000Y-95440000D01*
%TD*%
%TA.AperFunction,Conductor*%
%TO.N,/VOUT*%
G36*
X162077795Y-102833657D02*
G01*
X162124296Y-102887306D01*
X162135690Y-102939665D01*
X162135690Y-109354362D01*
X162134190Y-109373746D01*
X162130504Y-109397420D01*
X162131668Y-109406322D01*
X162131668Y-109406324D01*
X162131942Y-109408416D01*
X162132399Y-109437103D01*
X162121496Y-109547802D01*
X162116679Y-109572022D01*
X162078241Y-109698735D01*
X162068792Y-109721545D01*
X162006379Y-109838312D01*
X161992656Y-109858850D01*
X161908662Y-109961197D01*
X161891197Y-109978662D01*
X161788850Y-110062656D01*
X161768312Y-110076379D01*
X161651545Y-110138792D01*
X161628735Y-110148241D01*
X161502022Y-110186679D01*
X161477802Y-110191496D01*
X161416271Y-110197556D01*
X161373854Y-110201734D01*
X161357813Y-110201282D01*
X161357804Y-110201995D01*
X161348835Y-110201886D01*
X161339960Y-110200504D01*
X161308481Y-110204620D01*
X161292132Y-110205684D01*
X119835086Y-110199536D01*
X119766970Y-110179524D01*
X119720485Y-110125861D01*
X119709108Y-110074214D01*
X119670753Y-102946470D01*
X119690388Y-102878243D01*
X119743793Y-102831462D01*
X119796733Y-102819792D01*
X157943594Y-102814255D01*
X162009672Y-102813665D01*
X162077795Y-102833657D01*
G37*
%TD.AperFunction*%
%TD*%
%TA.AperFunction,Conductor*%
%TO.N,GND*%
G36*
X162077759Y-93964960D02*
G01*
X162124278Y-94018593D01*
X162135690Y-94070991D01*
X162135690Y-101218851D01*
X162115688Y-101286972D01*
X162062032Y-101333465D01*
X162009715Y-101344851D01*
X105427177Y-101356056D01*
X93230335Y-101358471D01*
X93162210Y-101338482D01*
X93115707Y-101284836D01*
X93104310Y-101232471D01*
X93104310Y-94104306D01*
X93124312Y-94036185D01*
X93177968Y-93989692D01*
X93230247Y-93978306D01*
X128370440Y-93961285D01*
X128438569Y-93981254D01*
X128485088Y-94034887D01*
X128496500Y-94087285D01*
X128496500Y-95532181D01*
X128476498Y-95600302D01*
X128421749Y-95647288D01*
X128379278Y-95666197D01*
X128379276Y-95666198D01*
X128373248Y-95668882D01*
X128218747Y-95781134D01*
X128090960Y-95923056D01*
X127995473Y-96088444D01*
X127936458Y-96270072D01*
X127916496Y-96460000D01*
X127936458Y-96649928D01*
X127995473Y-96831556D01*
X128090960Y-96996944D01*
X128218747Y-97138866D01*
X128373248Y-97251118D01*
X128379276Y-97253802D01*
X128379278Y-97253803D01*
X128541681Y-97326109D01*
X128547712Y-97328794D01*
X128641113Y-97348647D01*
X128728056Y-97367128D01*
X128728061Y-97367128D01*
X128734513Y-97368500D01*
X128925487Y-97368500D01*
X128931939Y-97367128D01*
X128931944Y-97367128D01*
X129018887Y-97348647D01*
X129112288Y-97328794D01*
X129118319Y-97326109D01*
X129280722Y-97253803D01*
X129280724Y-97253802D01*
X129286752Y-97251118D01*
X129441253Y-97138866D01*
X129569040Y-96996944D01*
X129664527Y-96831556D01*
X129723542Y-96649928D01*
X129743504Y-96460000D01*
X129736322Y-96391670D01*
X129740560Y-96344203D01*
X129743181Y-96338145D01*
X129744420Y-96330321D01*
X129744422Y-96330315D01*
X129750099Y-96294476D01*
X129752505Y-96282856D01*
X129761528Y-96247711D01*
X129761528Y-96247710D01*
X129763500Y-96240030D01*
X129763500Y-96219776D01*
X129765051Y-96200065D01*
X129766980Y-96187886D01*
X129768220Y-96180057D01*
X129764059Y-96136038D01*
X129763500Y-96124181D01*
X129763500Y-94086550D01*
X129783502Y-94018429D01*
X129837158Y-93971936D01*
X129889439Y-93960550D01*
X155264135Y-93948259D01*
X162009629Y-93944991D01*
X162077759Y-93964960D01*
G37*
%TD.AperFunction*%
%TD*%
%TA.AperFunction,Conductor*%
%TO.N,/VIN*%
G36*
X139151465Y-85499693D02*
G01*
X139219552Y-85519812D01*
X139249324Y-85546590D01*
X140481110Y-87073795D01*
X140508307Y-87139375D01*
X140498212Y-87203700D01*
X140495473Y-87208444D01*
X140436458Y-87390072D01*
X140416496Y-87580000D01*
X140436458Y-87769928D01*
X140495473Y-87951556D01*
X140590960Y-88116944D01*
X140718747Y-88258866D01*
X140873248Y-88371118D01*
X140879276Y-88373802D01*
X140879278Y-88373803D01*
X141041681Y-88446109D01*
X141047712Y-88448794D01*
X141141112Y-88468647D01*
X141228056Y-88487128D01*
X141228061Y-88487128D01*
X141234513Y-88488500D01*
X141307085Y-88488500D01*
X141375206Y-88508502D01*
X141394686Y-88523935D01*
X142553853Y-89645166D01*
X142564327Y-89656628D01*
X142902454Y-90075848D01*
X142929651Y-90141428D01*
X142930374Y-90153876D01*
X142957120Y-93292014D01*
X142958917Y-93502901D01*
X142939497Y-93571190D01*
X142886239Y-93618138D01*
X142832898Y-93629975D01*
X138523935Y-93629118D01*
X129889475Y-93627402D01*
X129821358Y-93607386D01*
X129774876Y-93553722D01*
X129763500Y-93501402D01*
X129763500Y-93378767D01*
X129764027Y-93367584D01*
X129765702Y-93360091D01*
X129763562Y-93292014D01*
X129763500Y-93288055D01*
X129763500Y-93260144D01*
X129762995Y-93256144D01*
X129762062Y-93244301D01*
X129760922Y-93208029D01*
X129760673Y-93200110D01*
X129755022Y-93180658D01*
X129751014Y-93161306D01*
X129749467Y-93149063D01*
X129748474Y-93141203D01*
X129745556Y-93133832D01*
X129732200Y-93100097D01*
X129728355Y-93088870D01*
X129727721Y-93086687D01*
X129716018Y-93046407D01*
X129705707Y-93028972D01*
X129697012Y-93011224D01*
X129689552Y-92992383D01*
X129663564Y-92956613D01*
X129657048Y-92946693D01*
X129638580Y-92915465D01*
X129638578Y-92915462D01*
X129634542Y-92908638D01*
X129620221Y-92894317D01*
X129607380Y-92879283D01*
X129600131Y-92869306D01*
X129595472Y-92862893D01*
X129561395Y-92834702D01*
X129552616Y-92826712D01*
X128297122Y-91571217D01*
X128263096Y-91508905D01*
X128260907Y-91495292D01*
X128244232Y-91336635D01*
X128244232Y-91336633D01*
X128243542Y-91330072D01*
X128184527Y-91148444D01*
X128089040Y-90983056D01*
X127961253Y-90841134D01*
X127806752Y-90728882D01*
X127800724Y-90726198D01*
X127800722Y-90726197D01*
X127638319Y-90653891D01*
X127638318Y-90653891D01*
X127632288Y-90651206D01*
X127538888Y-90631353D01*
X127451944Y-90612872D01*
X127451939Y-90612872D01*
X127445487Y-90611500D01*
X127254513Y-90611500D01*
X127248061Y-90612872D01*
X127248056Y-90612872D01*
X127161113Y-90631353D01*
X127067712Y-90651206D01*
X127061682Y-90653891D01*
X127061681Y-90653891D01*
X126899278Y-90726197D01*
X126899276Y-90726198D01*
X126893248Y-90728882D01*
X126738747Y-90841134D01*
X126610960Y-90983056D01*
X126515473Y-91148444D01*
X126456458Y-91330072D01*
X126436496Y-91520000D01*
X126456458Y-91709928D01*
X126515473Y-91891556D01*
X126610960Y-92056944D01*
X126738747Y-92198866D01*
X126893248Y-92311118D01*
X126899276Y-92313802D01*
X126899278Y-92313803D01*
X127061681Y-92386109D01*
X127067712Y-92388794D01*
X127161113Y-92408647D01*
X127248056Y-92427128D01*
X127248061Y-92427128D01*
X127254513Y-92428500D01*
X127310406Y-92428500D01*
X127378527Y-92448502D01*
X127399501Y-92465405D01*
X128346079Y-93411983D01*
X128380105Y-93474295D01*
X128375040Y-93545110D01*
X128332493Y-93601946D01*
X128265973Y-93626757D01*
X128256959Y-93627078D01*
X93230285Y-93620117D01*
X93162168Y-93600101D01*
X93115686Y-93546437D01*
X93104310Y-93494117D01*
X93104310Y-85546808D01*
X93124312Y-85478687D01*
X93177968Y-85432194D01*
X93230526Y-85420808D01*
X139151465Y-85499693D01*
G37*
%TD.AperFunction*%
%TD*%
M02*
