%TF.GenerationSoftware,KiCad,Pcbnew,(6.0.0-0)*%
%TF.CreationDate,2022-06-13T23:48:26-07:00*%
%TF.ProjectId,max20499_breakout,6d617832-3034-4393-995f-627265616b6f,rev?*%
%TF.SameCoordinates,Original*%
%TF.FileFunction,Legend,Bot*%
%TF.FilePolarity,Positive*%
%FSLAX46Y46*%
G04 Gerber Fmt 4.6, Leading zero omitted, Abs format (unit mm)*
G04 Created by KiCad (PCBNEW (6.0.0-0)) date 2022-06-13 23:48:26*
%MOMM*%
%LPD*%
G01*
G04 APERTURE LIST*
G04 Aperture macros list*
%AMRoundRect*
0 Rectangle with rounded corners*
0 $1 Rounding radius*
0 $2 $3 $4 $5 $6 $7 $8 $9 X,Y pos of 4 corners*
0 Add a 4 corners polygon primitive as box body*
4,1,4,$2,$3,$4,$5,$6,$7,$8,$9,$2,$3,0*
0 Add four circle primitives for the rounded corners*
1,1,$1+$1,$2,$3*
1,1,$1+$1,$4,$5*
1,1,$1+$1,$6,$7*
1,1,$1+$1,$8,$9*
0 Add four rect primitives between the rounded corners*
20,1,$1+$1,$2,$3,$4,$5,0*
20,1,$1+$1,$4,$5,$6,$7,0*
20,1,$1+$1,$6,$7,$8,$9,0*
20,1,$1+$1,$8,$9,$2,$3,0*%
G04 Aperture macros list end*
%ADD10C,0.150000*%
%ADD11C,0.120000*%
%ADD12C,2.520000*%
%ADD13R,1.700000X1.700000*%
%ADD14O,1.700000X1.700000*%
%ADD15RoundRect,0.250000X-1.100000X0.325000X-1.100000X-0.325000X1.100000X-0.325000X1.100000X0.325000X0*%
%ADD16RoundRect,0.250000X0.650000X-0.325000X0.650000X0.325000X-0.650000X0.325000X-0.650000X-0.325000X0*%
%ADD17RoundRect,0.250000X-1.025000X0.787500X-1.025000X-0.787500X1.025000X-0.787500X1.025000X0.787500X0*%
G04 APERTURE END LIST*
D10*
X157492380Y-90572857D02*
X158492380Y-90906190D01*
X157492380Y-91239523D01*
X158492380Y-91572857D02*
X157492380Y-91572857D01*
X157492380Y-91953809D01*
X157540000Y-92049047D01*
X157587619Y-92096666D01*
X157682857Y-92144285D01*
X157825714Y-92144285D01*
X157920952Y-92096666D01*
X157968571Y-92049047D01*
X158016190Y-91953809D01*
X158016190Y-91572857D01*
X157492380Y-92572857D02*
X158301904Y-92572857D01*
X158397142Y-92620476D01*
X158444761Y-92668095D01*
X158492380Y-92763333D01*
X158492380Y-92953809D01*
X158444761Y-93049047D01*
X158397142Y-93096666D01*
X158301904Y-93144285D01*
X157492380Y-93144285D01*
X155814761Y-90739524D02*
X155862380Y-90882381D01*
X155862380Y-91120477D01*
X155814761Y-91215715D01*
X155767142Y-91263334D01*
X155671904Y-91310953D01*
X155576666Y-91310953D01*
X155481428Y-91263334D01*
X155433809Y-91215715D01*
X155386190Y-91120477D01*
X155338571Y-90930001D01*
X155290952Y-90834762D01*
X155243333Y-90787143D01*
X155148095Y-90739524D01*
X155052857Y-90739524D01*
X154957619Y-90787143D01*
X154910000Y-90834762D01*
X154862380Y-90930001D01*
X154862380Y-91168096D01*
X154910000Y-91310953D01*
X155767142Y-92310953D02*
X155814761Y-92263334D01*
X155862380Y-92120477D01*
X155862380Y-92025239D01*
X155814761Y-91882381D01*
X155719523Y-91787143D01*
X155624285Y-91739524D01*
X155433809Y-91691905D01*
X155290952Y-91691905D01*
X155100476Y-91739524D01*
X155005238Y-91787143D01*
X154910000Y-91882381D01*
X154862380Y-92025239D01*
X154862380Y-92120477D01*
X154910000Y-92263334D01*
X154957619Y-92310953D01*
X155862380Y-93215715D02*
X155862380Y-92739524D01*
X154862380Y-92739524D01*
X153324761Y-90715714D02*
X153372380Y-90858571D01*
X153372380Y-91096666D01*
X153324761Y-91191904D01*
X153277142Y-91239523D01*
X153181904Y-91287142D01*
X153086666Y-91287142D01*
X152991428Y-91239523D01*
X152943809Y-91191904D01*
X152896190Y-91096666D01*
X152848571Y-90906190D01*
X152800952Y-90810952D01*
X152753333Y-90763333D01*
X152658095Y-90715714D01*
X152562857Y-90715714D01*
X152467619Y-90763333D01*
X152420000Y-90810952D01*
X152372380Y-90906190D01*
X152372380Y-91144285D01*
X152420000Y-91287142D01*
X153372380Y-91715714D02*
X152372380Y-91715714D01*
X152372380Y-91953809D01*
X152420000Y-92096666D01*
X152515238Y-92191904D01*
X152610476Y-92239523D01*
X152800952Y-92287142D01*
X152943809Y-92287142D01*
X153134285Y-92239523D01*
X153229523Y-92191904D01*
X153324761Y-92096666D01*
X153372380Y-91953809D01*
X153372380Y-91715714D01*
X153086666Y-92668095D02*
X153086666Y-93144285D01*
X153372380Y-92572857D02*
X152372380Y-92906190D01*
X153372380Y-93239523D01*
X149750000Y-91168095D02*
X149702380Y-91072857D01*
X149702380Y-90930000D01*
X149750000Y-90787142D01*
X149845238Y-90691904D01*
X149940476Y-90644285D01*
X150130952Y-90596666D01*
X150273809Y-90596666D01*
X150464285Y-90644285D01*
X150559523Y-90691904D01*
X150654761Y-90787142D01*
X150702380Y-90930000D01*
X150702380Y-91025238D01*
X150654761Y-91168095D01*
X150607142Y-91215714D01*
X150273809Y-91215714D01*
X150273809Y-91025238D01*
X150702380Y-91644285D02*
X149702380Y-91644285D01*
X150702380Y-92215714D01*
X149702380Y-92215714D01*
X150702380Y-92691904D02*
X149702380Y-92691904D01*
X149702380Y-92930000D01*
X149750000Y-93072857D01*
X149845238Y-93168095D01*
X149940476Y-93215714D01*
X150130952Y-93263333D01*
X150273809Y-93263333D01*
X150464285Y-93215714D01*
X150559523Y-93168095D01*
X150654761Y-93072857D01*
X150702380Y-92930000D01*
X150702380Y-92691904D01*
%TO.C,C19*%
X116122857Y-90849642D02*
X116170476Y-90897261D01*
X116313333Y-90944880D01*
X116408571Y-90944880D01*
X116551428Y-90897261D01*
X116646666Y-90802023D01*
X116694285Y-90706785D01*
X116741904Y-90516309D01*
X116741904Y-90373452D01*
X116694285Y-90182976D01*
X116646666Y-90087738D01*
X116551428Y-89992500D01*
X116408571Y-89944880D01*
X116313333Y-89944880D01*
X116170476Y-89992500D01*
X116122857Y-90040119D01*
X115170476Y-90944880D02*
X115741904Y-90944880D01*
X115456190Y-90944880D02*
X115456190Y-89944880D01*
X115551428Y-90087738D01*
X115646666Y-90182976D01*
X115741904Y-90230595D01*
X114694285Y-90944880D02*
X114503809Y-90944880D01*
X114408571Y-90897261D01*
X114360952Y-90849642D01*
X114265714Y-90706785D01*
X114218095Y-90516309D01*
X114218095Y-90135357D01*
X114265714Y-90040119D01*
X114313333Y-89992500D01*
X114408571Y-89944880D01*
X114599047Y-89944880D01*
X114694285Y-89992500D01*
X114741904Y-90040119D01*
X114789523Y-90135357D01*
X114789523Y-90373452D01*
X114741904Y-90468690D01*
X114694285Y-90516309D01*
X114599047Y-90563928D01*
X114408571Y-90563928D01*
X114313333Y-90516309D01*
X114265714Y-90468690D01*
X114218095Y-90373452D01*
%TO.C,C12*%
X122247142Y-97507142D02*
X122294761Y-97459523D01*
X122342380Y-97316666D01*
X122342380Y-97221428D01*
X122294761Y-97078571D01*
X122199523Y-96983333D01*
X122104285Y-96935714D01*
X121913809Y-96888095D01*
X121770952Y-96888095D01*
X121580476Y-96935714D01*
X121485238Y-96983333D01*
X121390000Y-97078571D01*
X121342380Y-97221428D01*
X121342380Y-97316666D01*
X121390000Y-97459523D01*
X121437619Y-97507142D01*
X122342380Y-98459523D02*
X122342380Y-97888095D01*
X122342380Y-98173809D02*
X121342380Y-98173809D01*
X121485238Y-98078571D01*
X121580476Y-97983333D01*
X121628095Y-97888095D01*
X121437619Y-98840476D02*
X121390000Y-98888095D01*
X121342380Y-98983333D01*
X121342380Y-99221428D01*
X121390000Y-99316666D01*
X121437619Y-99364285D01*
X121532857Y-99411904D01*
X121628095Y-99411904D01*
X121770952Y-99364285D01*
X122342380Y-98792857D01*
X122342380Y-99411904D01*
%TO.C,C18*%
X112382857Y-90799642D02*
X112430476Y-90847261D01*
X112573333Y-90894880D01*
X112668571Y-90894880D01*
X112811428Y-90847261D01*
X112906666Y-90752023D01*
X112954285Y-90656785D01*
X113001904Y-90466309D01*
X113001904Y-90323452D01*
X112954285Y-90132976D01*
X112906666Y-90037738D01*
X112811428Y-89942500D01*
X112668571Y-89894880D01*
X112573333Y-89894880D01*
X112430476Y-89942500D01*
X112382857Y-89990119D01*
X111430476Y-90894880D02*
X112001904Y-90894880D01*
X111716190Y-90894880D02*
X111716190Y-89894880D01*
X111811428Y-90037738D01*
X111906666Y-90132976D01*
X112001904Y-90180595D01*
X110859047Y-90323452D02*
X110954285Y-90275833D01*
X111001904Y-90228214D01*
X111049523Y-90132976D01*
X111049523Y-90085357D01*
X111001904Y-89990119D01*
X110954285Y-89942500D01*
X110859047Y-89894880D01*
X110668571Y-89894880D01*
X110573333Y-89942500D01*
X110525714Y-89990119D01*
X110478095Y-90085357D01*
X110478095Y-90132976D01*
X110525714Y-90228214D01*
X110573333Y-90275833D01*
X110668571Y-90323452D01*
X110859047Y-90323452D01*
X110954285Y-90371071D01*
X111001904Y-90418690D01*
X111049523Y-90513928D01*
X111049523Y-90704404D01*
X111001904Y-90799642D01*
X110954285Y-90847261D01*
X110859047Y-90894880D01*
X110668571Y-90894880D01*
X110573333Y-90847261D01*
X110525714Y-90799642D01*
X110478095Y-90704404D01*
X110478095Y-90513928D01*
X110525714Y-90418690D01*
X110573333Y-90371071D01*
X110668571Y-90323452D01*
%TO.C,C14*%
X126527142Y-97477142D02*
X126574761Y-97429523D01*
X126622380Y-97286666D01*
X126622380Y-97191428D01*
X126574761Y-97048571D01*
X126479523Y-96953333D01*
X126384285Y-96905714D01*
X126193809Y-96858095D01*
X126050952Y-96858095D01*
X125860476Y-96905714D01*
X125765238Y-96953333D01*
X125670000Y-97048571D01*
X125622380Y-97191428D01*
X125622380Y-97286666D01*
X125670000Y-97429523D01*
X125717619Y-97477142D01*
X126622380Y-98429523D02*
X126622380Y-97858095D01*
X126622380Y-98143809D02*
X125622380Y-98143809D01*
X125765238Y-98048571D01*
X125860476Y-97953333D01*
X125908095Y-97858095D01*
X125955714Y-99286666D02*
X126622380Y-99286666D01*
X125574761Y-99048571D02*
X126289047Y-98810476D01*
X126289047Y-99429523D01*
%TO.C,C17*%
X104817142Y-92769642D02*
X104864761Y-92722023D01*
X104912380Y-92579166D01*
X104912380Y-92483928D01*
X104864761Y-92341071D01*
X104769523Y-92245833D01*
X104674285Y-92198214D01*
X104483809Y-92150595D01*
X104340952Y-92150595D01*
X104150476Y-92198214D01*
X104055238Y-92245833D01*
X103960000Y-92341071D01*
X103912380Y-92483928D01*
X103912380Y-92579166D01*
X103960000Y-92722023D01*
X104007619Y-92769642D01*
X104912380Y-93722023D02*
X104912380Y-93150595D01*
X104912380Y-93436309D02*
X103912380Y-93436309D01*
X104055238Y-93341071D01*
X104150476Y-93245833D01*
X104198095Y-93150595D01*
X103912380Y-94055357D02*
X103912380Y-94722023D01*
X104912380Y-94293452D01*
%TO.C,C21*%
X124002857Y-90749642D02*
X124050476Y-90797261D01*
X124193333Y-90844880D01*
X124288571Y-90844880D01*
X124431428Y-90797261D01*
X124526666Y-90702023D01*
X124574285Y-90606785D01*
X124621904Y-90416309D01*
X124621904Y-90273452D01*
X124574285Y-90082976D01*
X124526666Y-89987738D01*
X124431428Y-89892500D01*
X124288571Y-89844880D01*
X124193333Y-89844880D01*
X124050476Y-89892500D01*
X124002857Y-89940119D01*
X123621904Y-89940119D02*
X123574285Y-89892500D01*
X123479047Y-89844880D01*
X123240952Y-89844880D01*
X123145714Y-89892500D01*
X123098095Y-89940119D01*
X123050476Y-90035357D01*
X123050476Y-90130595D01*
X123098095Y-90273452D01*
X123669523Y-90844880D01*
X123050476Y-90844880D01*
X122098095Y-90844880D02*
X122669523Y-90844880D01*
X122383809Y-90844880D02*
X122383809Y-89844880D01*
X122479047Y-89987738D01*
X122574285Y-90082976D01*
X122669523Y-90130595D01*
%TO.C,C13*%
X138397142Y-97577142D02*
X138444761Y-97529523D01*
X138492380Y-97386666D01*
X138492380Y-97291428D01*
X138444761Y-97148571D01*
X138349523Y-97053333D01*
X138254285Y-97005714D01*
X138063809Y-96958095D01*
X137920952Y-96958095D01*
X137730476Y-97005714D01*
X137635238Y-97053333D01*
X137540000Y-97148571D01*
X137492380Y-97291428D01*
X137492380Y-97386666D01*
X137540000Y-97529523D01*
X137587619Y-97577142D01*
X138492380Y-98529523D02*
X138492380Y-97958095D01*
X138492380Y-98243809D02*
X137492380Y-98243809D01*
X137635238Y-98148571D01*
X137730476Y-98053333D01*
X137778095Y-97958095D01*
X137492380Y-98862857D02*
X137492380Y-99481904D01*
X137873333Y-99148571D01*
X137873333Y-99291428D01*
X137920952Y-99386666D01*
X137968571Y-99434285D01*
X138063809Y-99481904D01*
X138301904Y-99481904D01*
X138397142Y-99434285D01*
X138444761Y-99386666D01*
X138492380Y-99291428D01*
X138492380Y-99005714D01*
X138444761Y-98910476D01*
X138397142Y-98862857D01*
%TO.C,C11*%
X141997142Y-97577142D02*
X142044761Y-97529523D01*
X142092380Y-97386666D01*
X142092380Y-97291428D01*
X142044761Y-97148571D01*
X141949523Y-97053333D01*
X141854285Y-97005714D01*
X141663809Y-96958095D01*
X141520952Y-96958095D01*
X141330476Y-97005714D01*
X141235238Y-97053333D01*
X141140000Y-97148571D01*
X141092380Y-97291428D01*
X141092380Y-97386666D01*
X141140000Y-97529523D01*
X141187619Y-97577142D01*
X142092380Y-98529523D02*
X142092380Y-97958095D01*
X142092380Y-98243809D02*
X141092380Y-98243809D01*
X141235238Y-98148571D01*
X141330476Y-98053333D01*
X141378095Y-97958095D01*
X142092380Y-99481904D02*
X142092380Y-98910476D01*
X142092380Y-99196190D02*
X141092380Y-99196190D01*
X141235238Y-99100952D01*
X141330476Y-99005714D01*
X141378095Y-98910476D01*
%TO.C,C20*%
X119972857Y-90799642D02*
X120020476Y-90847261D01*
X120163333Y-90894880D01*
X120258571Y-90894880D01*
X120401428Y-90847261D01*
X120496666Y-90752023D01*
X120544285Y-90656785D01*
X120591904Y-90466309D01*
X120591904Y-90323452D01*
X120544285Y-90132976D01*
X120496666Y-90037738D01*
X120401428Y-89942500D01*
X120258571Y-89894880D01*
X120163333Y-89894880D01*
X120020476Y-89942500D01*
X119972857Y-89990119D01*
X119591904Y-89990119D02*
X119544285Y-89942500D01*
X119449047Y-89894880D01*
X119210952Y-89894880D01*
X119115714Y-89942500D01*
X119068095Y-89990119D01*
X119020476Y-90085357D01*
X119020476Y-90180595D01*
X119068095Y-90323452D01*
X119639523Y-90894880D01*
X119020476Y-90894880D01*
X118401428Y-89894880D02*
X118306190Y-89894880D01*
X118210952Y-89942500D01*
X118163333Y-89990119D01*
X118115714Y-90085357D01*
X118068095Y-90275833D01*
X118068095Y-90513928D01*
X118115714Y-90704404D01*
X118163333Y-90799642D01*
X118210952Y-90847261D01*
X118306190Y-90894880D01*
X118401428Y-90894880D01*
X118496666Y-90847261D01*
X118544285Y-90799642D01*
X118591904Y-90704404D01*
X118639523Y-90513928D01*
X118639523Y-90275833D01*
X118591904Y-90085357D01*
X118544285Y-89990119D01*
X118496666Y-89942500D01*
X118401428Y-89894880D01*
D11*
%TO.C,C19*%
X114120000Y-92941248D02*
X114120000Y-94363752D01*
X116840000Y-92941248D02*
X116840000Y-94363752D01*
%TO.C,C12*%
X121030000Y-102881252D02*
X121030000Y-101458748D01*
X122850000Y-102881252D02*
X122850000Y-101458748D01*
%TO.C,C18*%
X110430000Y-92891248D02*
X110430000Y-94313752D01*
X113150000Y-92891248D02*
X113150000Y-94313752D01*
%TO.C,C14*%
X125180000Y-102881252D02*
X125180000Y-101458748D01*
X127000000Y-102881252D02*
X127000000Y-101458748D01*
%TO.C,C17*%
X105300000Y-97062500D02*
X105300000Y-89002500D01*
X105300000Y-89002500D02*
X109820000Y-89002500D01*
X109820000Y-89002500D02*
X109820000Y-97062500D01*
%TO.C,C21*%
X121760000Y-92991248D02*
X121760000Y-94413752D01*
X124480000Y-92991248D02*
X124480000Y-94413752D01*
%TO.C,C13*%
X138770000Y-102881252D02*
X138770000Y-101458748D01*
X136950000Y-102881252D02*
X136950000Y-101458748D01*
%TO.C,C11*%
X140790000Y-102881252D02*
X140790000Y-101458748D01*
X142610000Y-102881252D02*
X142610000Y-101458748D01*
%TO.C,C20*%
X120590000Y-92991248D02*
X120590000Y-94413752D01*
X117870000Y-92991248D02*
X117870000Y-94413752D01*
%TD*%
%LPC*%
D12*
%TO.C,J1*%
X101850000Y-97600000D03*
X96770000Y-97600000D03*
%TD*%
D13*
%TO.C,J3*%
X150240000Y-88760000D03*
D14*
X152780000Y-88760000D03*
X155320000Y-88760000D03*
X157860000Y-88760000D03*
%TD*%
D12*
%TO.C,J2*%
X101730000Y-90280000D03*
X96650000Y-90280000D03*
%TD*%
%TO.C,J4*%
X154060000Y-105040000D03*
X159140000Y-105040000D03*
%TD*%
%TO.C,J5*%
X154070000Y-97600000D03*
X159150000Y-97600000D03*
%TD*%
D15*
%TO.C,C19*%
X115480000Y-92177500D03*
X115480000Y-95127500D03*
%TD*%
D16*
%TO.C,C12*%
X121940000Y-103645000D03*
X121940000Y-100695000D03*
%TD*%
D15*
%TO.C,C18*%
X111790000Y-92127500D03*
X111790000Y-95077500D03*
%TD*%
D16*
%TO.C,C14*%
X126090000Y-103645000D03*
X126090000Y-100695000D03*
%TD*%
D17*
%TO.C,C17*%
X107560000Y-90300000D03*
X107560000Y-96525000D03*
%TD*%
D15*
%TO.C,C21*%
X123120000Y-92227500D03*
X123120000Y-95177500D03*
%TD*%
D16*
%TO.C,C13*%
X137860000Y-103645000D03*
X137860000Y-100695000D03*
%TD*%
%TO.C,C11*%
X141700000Y-103645000D03*
X141700000Y-100695000D03*
%TD*%
D15*
%TO.C,C20*%
X119230000Y-92227500D03*
X119230000Y-95177500D03*
%TD*%
M02*
