%TF.GenerationSoftware,KiCad,Pcbnew,(6.0.0-0)*%
%TF.CreationDate,2022-06-13T23:48:26-07:00*%
%TF.ProjectId,max20499_breakout,6d617832-3034-4393-995f-627265616b6f,rev?*%
%TF.SameCoordinates,Original*%
%TF.FileFunction,Copper,L1,Top*%
%TF.FilePolarity,Positive*%
%FSLAX46Y46*%
G04 Gerber Fmt 4.6, Leading zero omitted, Abs format (unit mm)*
G04 Created by KiCad (PCBNEW (6.0.0-0)) date 2022-06-13 23:48:26*
%MOMM*%
%LPD*%
G01*
G04 APERTURE LIST*
G04 Aperture macros list*
%AMRoundRect*
0 Rectangle with rounded corners*
0 $1 Rounding radius*
0 $2 $3 $4 $5 $6 $7 $8 $9 X,Y pos of 4 corners*
0 Add a 4 corners polygon primitive as box body*
4,1,4,$2,$3,$4,$5,$6,$7,$8,$9,$2,$3,0*
0 Add four circle primitives for the rounded corners*
1,1,$1+$1,$2,$3*
1,1,$1+$1,$4,$5*
1,1,$1+$1,$6,$7*
1,1,$1+$1,$8,$9*
0 Add four rect primitives between the rounded corners*
20,1,$1+$1,$2,$3,$4,$5,0*
20,1,$1+$1,$4,$5,$6,$7,0*
20,1,$1+$1,$6,$7,$8,$9,0*
20,1,$1+$1,$8,$9,$2,$3,0*%
%AMFreePoly0*
4,1,17,0.000354,1.075354,0.000500,1.075000,0.000500,0.000000,0.000354,-0.000354,0.000000,-0.000500,-0.900000,-0.000500,-0.900354,-0.000354,-0.900500,0.000000,-0.900500,0.400000,-0.900354,0.400354,-0.900000,0.400500,-0.450500,0.400500,-0.450500,1.075000,-0.450354,1.075354,-0.450000,1.075500,0.000000,1.075500,0.000354,1.075354,0.000354,1.075354,$1*%
%AMFreePoly1*
4,1,17,0.450354,1.075354,0.450500,1.075000,0.450500,0.400500,0.900000,0.400500,0.900354,0.400354,0.900500,0.400000,0.900500,0.000000,0.900354,-0.000354,0.900000,-0.000500,0.000000,-0.000500,-0.000354,-0.000354,-0.000500,0.000000,-0.000500,1.075000,-0.000354,1.075354,0.000000,1.075500,0.450000,1.075500,0.450354,1.075354,0.450354,1.075354,$1*%
%AMFreePoly2*
4,1,17,0.000354,0.000354,0.000500,0.000000,0.000500,-0.350000,0.000354,-0.350354,0.000000,-0.350500,-0.975000,-0.350500,-0.975354,-0.350354,-0.975500,-0.350000,-0.975500,-0.250500,-1.550000,-0.250500,-1.550354,-0.250354,-1.550500,-0.250000,-1.550500,0.000000,-1.550354,0.000354,-1.550000,0.000500,0.000000,0.000500,0.000354,0.000354,0.000354,0.000354,$1*%
%AMFreePoly3*
4,1,29,0.000035,0.000035,0.000050,0.000000,0.000050,-0.900000,0.000035,-0.900035,0.000000,-0.900050,-0.499950,-0.900050,-0.499950,-1.600000,-0.499965,-1.600035,-0.500000,-1.600050,-0.950000,-1.600050,-0.950035,-1.600035,-0.950050,-1.600000,-0.950050,-0.900050,-1.575000,-0.900050,-1.575035,-0.900035,-1.575050,-0.900000,-1.575050,-0.650000,-1.575035,-0.649965,-1.575000,-0.649950,-0.950050,-0.649950,
-0.950050,-0.250050,-1.575000,-0.250050,-1.575035,-0.250035,-1.575050,-0.250000,-1.575050,0.000000,-1.575035,0.000035,-1.575000,0.000050,0.000000,0.000050,0.000035,0.000035,0.000035,0.000035,$1*%
%AMFreePoly4*
4,1,29,1.575035,0.000035,1.575050,0.000000,1.575050,-0.250000,1.575035,-0.250035,1.575000,-0.250050,0.950050,-0.250050,0.950050,-0.649950,1.575000,-0.649950,1.575035,-0.649965,1.575050,-0.650000,1.575050,-0.900000,1.575035,-0.900035,1.575000,-0.900050,0.950050,-0.900050,0.950050,-1.600000,0.950035,-1.600035,0.950000,-1.600050,0.500000,-1.600050,0.499965,-1.600035,0.499950,-1.600000,
0.499950,-0.900050,0.000000,-0.900050,-0.000035,-0.900035,-0.000050,-0.900000,-0.000050,0.000000,-0.000035,0.000035,0.000000,0.000050,1.575000,0.000050,1.575035,0.000035,1.575035,0.000035,$1*%
%AMFreePoly5*
4,1,17,1.550354,0.000354,1.550500,0.000000,1.550500,-0.250000,1.550354,-0.250354,1.550000,-0.250500,0.975500,-0.250500,0.975500,-0.350000,0.975354,-0.350354,0.975000,-0.350500,0.000000,-0.350500,-0.000354,-0.350354,-0.000500,-0.350000,-0.000500,0.000000,-0.000354,0.000354,0.000000,0.000500,1.550000,0.000500,1.550354,0.000354,1.550354,0.000354,$1*%
G04 Aperture macros list end*
%TA.AperFunction,SMDPad,CuDef*%
%ADD10RoundRect,0.135000X-0.185000X0.135000X-0.185000X-0.135000X0.185000X-0.135000X0.185000X0.135000X0*%
%TD*%
%TA.AperFunction,SMDPad,CuDef*%
%ADD11RoundRect,0.135000X0.135000X0.185000X-0.135000X0.185000X-0.135000X-0.185000X0.135000X-0.185000X0*%
%TD*%
%TA.AperFunction,ComponentPad*%
%ADD12C,2.520000*%
%TD*%
%TA.AperFunction,SMDPad,CuDef*%
%ADD13RoundRect,0.225000X-0.250000X0.225000X-0.250000X-0.225000X0.250000X-0.225000X0.250000X0.225000X0*%
%TD*%
%TA.AperFunction,SMDPad,CuDef*%
%ADD14RoundRect,0.250000X-0.475000X0.250000X-0.475000X-0.250000X0.475000X-0.250000X0.475000X0.250000X0*%
%TD*%
%TA.AperFunction,ComponentPad*%
%ADD15R,1.700000X1.700000*%
%TD*%
%TA.AperFunction,ComponentPad*%
%ADD16O,1.700000X1.700000*%
%TD*%
%TA.AperFunction,SMDPad,CuDef*%
%ADD17RoundRect,0.250000X0.650000X-0.325000X0.650000X0.325000X-0.650000X0.325000X-0.650000X-0.325000X0*%
%TD*%
%TA.AperFunction,SMDPad,CuDef*%
%ADD18RoundRect,0.225000X-0.225000X-0.250000X0.225000X-0.250000X0.225000X0.250000X-0.225000X0.250000X0*%
%TD*%
%TA.AperFunction,SMDPad,CuDef*%
%ADD19R,0.650000X0.700000*%
%TD*%
%TA.AperFunction,SMDPad,CuDef*%
%ADD20FreePoly0,0.000000*%
%TD*%
%TA.AperFunction,SMDPad,CuDef*%
%ADD21R,0.350000X1.025000*%
%TD*%
%TA.AperFunction,SMDPad,CuDef*%
%ADD22R,0.300000X0.925000*%
%TD*%
%TA.AperFunction,SMDPad,CuDef*%
%ADD23FreePoly1,0.000000*%
%TD*%
%TA.AperFunction,SMDPad,CuDef*%
%ADD24R,0.925000X0.300000*%
%TD*%
%TA.AperFunction,SMDPad,CuDef*%
%ADD25FreePoly2,0.000000*%
%TD*%
%TA.AperFunction,SMDPad,CuDef*%
%ADD26C,0.100000*%
%TD*%
%TA.AperFunction,SMDPad,CuDef*%
%ADD27FreePoly3,0.000000*%
%TD*%
%TA.AperFunction,SMDPad,CuDef*%
%ADD28R,0.350000X1.925000*%
%TD*%
%TA.AperFunction,SMDPad,CuDef*%
%ADD29FreePoly4,0.000000*%
%TD*%
%TA.AperFunction,SMDPad,CuDef*%
%ADD30FreePoly5,0.000000*%
%TD*%
%TA.AperFunction,SMDPad,CuDef*%
%ADD31R,2.700000X3.850000*%
%TD*%
%TA.AperFunction,ViaPad*%
%ADD32C,0.800000*%
%TD*%
%TA.AperFunction,Conductor*%
%ADD33C,0.250000*%
%TD*%
G04 APERTURE END LIST*
D10*
%TO.P,R4,1*%
%TO.N,/VIN*%
X132630000Y-88750000D03*
%TO.P,R4,2*%
%TO.N,Net-(R4-Pad2)*%
X132630000Y-89770000D03*
%TD*%
%TO.P,R3,1*%
%TO.N,/VIN*%
X131690000Y-86170000D03*
%TO.P,R3,2*%
%TO.N,Net-(R3-Pad2)*%
X131690000Y-87190000D03*
%TD*%
D11*
%TO.P,R2,1*%
%TO.N,Net-(J3-Pad4)*%
X152740000Y-91710000D03*
%TO.P,R2,2*%
%TO.N,/SDA*%
X151720000Y-91710000D03*
%TD*%
%TO.P,R1,1*%
%TO.N,Net-(J3-Pad4)*%
X157650000Y-91700000D03*
%TO.P,R1,2*%
%TO.N,/SCL*%
X156630000Y-91700000D03*
%TD*%
D12*
%TO.P,J1,1,Pin_1*%
%TO.N,GND*%
X101850000Y-97600000D03*
X96770000Y-97600000D03*
%TD*%
D13*
%TO.P,C2,1*%
%TO.N,/VIN*%
X127220000Y-93065000D03*
%TO.P,C2,2*%
%TO.N,GND*%
X127220000Y-94615000D03*
%TD*%
D14*
%TO.P,C15,1*%
%TO.N,/VIN*%
X121750000Y-92890000D03*
%TO.P,C15,2*%
%TO.N,GND*%
X121750000Y-94790000D03*
%TD*%
D15*
%TO.P,J3,1,Pin_1*%
%TO.N,GND*%
X150240000Y-88760000D03*
D16*
%TO.P,J3,2,Pin_2*%
%TO.N,/SDA*%
X152780000Y-88760000D03*
%TO.P,J3,3,Pin_3*%
%TO.N,/SCL*%
X155320000Y-88760000D03*
%TO.P,J3,4,Pin_4*%
%TO.N,Net-(J3-Pad4)*%
X157860000Y-88760000D03*
%TD*%
D17*
%TO.P,C8,1*%
%TO.N,/VOUT*%
X126030000Y-103635000D03*
%TO.P,C8,2*%
%TO.N,GND*%
X126030000Y-100685000D03*
%TD*%
D14*
%TO.P,C1,2*%
%TO.N,GND*%
X124620000Y-94790000D03*
%TO.P,C1,1*%
%TO.N,/VIN*%
X124620000Y-92890000D03*
%TD*%
D12*
%TO.P,J2,1,Pin_1*%
%TO.N,/VIN*%
X101730000Y-90280000D03*
X96650000Y-90280000D03*
%TD*%
D18*
%TO.P,C5,1*%
%TO.N,/VIN*%
X135215000Y-87840000D03*
%TO.P,C5,2*%
%TO.N,GND*%
X136765000Y-87840000D03*
%TD*%
D17*
%TO.P,C7,1*%
%TO.N,/VOUT*%
X137950000Y-103635000D03*
%TO.P,C7,2*%
%TO.N,GND*%
X137950000Y-100685000D03*
%TD*%
D19*
%TO.P,U1,EP,EP*%
%TO.N,/VIN*%
X131530000Y-92980000D03*
D20*
%TO.P,U1,17,SCL*%
%TO.N,/SCL*%
X130380000Y-92055000D03*
D21*
%TO.P,U1,16,SDA*%
%TO.N,/SDA*%
X130755000Y-91492500D03*
D22*
%TO.P,U1,15,AV*%
%TO.N,Net-(R3-Pad2)*%
X131280000Y-91442500D03*
%TO.P,U1,14,GND*%
%TO.N,GND*%
X131780000Y-91442500D03*
D21*
%TO.P,U1,13,RESET*%
%TO.N,Net-(R4-Pad2)*%
X132305000Y-91492500D03*
D23*
%TO.P,U1,12,SYNC*%
%TO.N,GND*%
X132680000Y-92055000D03*
D24*
%TO.P,U1,11,RS+*%
%TO.N,/VOUT*%
X133117500Y-92455000D03*
%TO.P,U1,10,RS-*%
%TO.N,GND*%
X133117500Y-92955000D03*
D25*
%TO.P,U1,9,PV*%
%TO.N,/VIN*%
X133580000Y-93330000D03*
D26*
%TO.P,U1,8,PGND*%
%TO.N,GND*%
X132995000Y-94265000D03*
D27*
%TO.P,U1,7,PGND*%
X133580000Y-93980000D03*
D28*
%TO.P,U1,6,LX*%
%TO.N,/LX1*%
X131530000Y-94617500D03*
D29*
%TO.P,U1,5,PGND*%
%TO.N,GND*%
X129480000Y-93980000D03*
D26*
%TO.P,U1,4,PGND*%
X130010000Y-94275000D03*
D30*
%TO.P,U1,3,PV*%
%TO.N,/VIN*%
X129480000Y-93330000D03*
D24*
%TO.P,U1,2,BST*%
%TO.N,Net-(C6-Pad1)*%
X129942500Y-92955000D03*
%TO.P,U1,1,EN*%
%TO.N,/VIN*%
X129942500Y-92455000D03*
%TD*%
D17*
%TO.P,C9,1*%
%TO.N,/VOUT*%
X121870000Y-103635000D03*
%TO.P,C9,2*%
%TO.N,GND*%
X121870000Y-100685000D03*
%TD*%
D14*
%TO.P,C16,2*%
%TO.N,GND*%
X141630000Y-94785000D03*
%TO.P,C16,1*%
%TO.N,/VIN*%
X141630000Y-92885000D03*
%TD*%
D31*
%TO.P,L1,1,1*%
%TO.N,/LX1*%
X131530000Y-98735000D03*
%TO.P,L1,2,2*%
%TO.N,/VOUT*%
X131530000Y-105285000D03*
%TD*%
D17*
%TO.P,C10,1*%
%TO.N,/VOUT*%
X141720000Y-103635000D03*
%TO.P,C10,2*%
%TO.N,GND*%
X141720000Y-100685000D03*
%TD*%
D12*
%TO.P,J4,1,Pin_1*%
%TO.N,/VOUT*%
X154060000Y-105040000D03*
X159140000Y-105040000D03*
%TD*%
D13*
%TO.P,C4,1*%
%TO.N,/VIN*%
X136290000Y-93075000D03*
%TO.P,C4,2*%
%TO.N,GND*%
X136290000Y-94625000D03*
%TD*%
%TO.P,C6,2*%
%TO.N,/LX1*%
X125520000Y-90525000D03*
%TO.P,C6,1*%
%TO.N,Net-(C6-Pad1)*%
X125520000Y-88975000D03*
%TD*%
D12*
%TO.P,J5,1,Pin_1*%
%TO.N,GND*%
X154070000Y-97600000D03*
X159150000Y-97600000D03*
%TD*%
D14*
%TO.P,C3,1*%
%TO.N,/VIN*%
X138720000Y-92885000D03*
%TO.P,C3,2*%
%TO.N,GND*%
X138720000Y-94785000D03*
%TD*%
D32*
%TO.N,/VOUT*%
X128770000Y-108625000D03*
X130400000Y-108630000D03*
X134030000Y-108600000D03*
X132170000Y-108600000D03*
X142330000Y-109145000D03*
X142330000Y-106195000D03*
X142330000Y-107670000D03*
X140270000Y-109195000D03*
X140270000Y-106245000D03*
X140270000Y-107720000D03*
X138270000Y-109195000D03*
X138270000Y-106245000D03*
X138270000Y-107720000D03*
X136470000Y-109165000D03*
X136470000Y-106215000D03*
X136470000Y-107690000D03*
X126290000Y-109165000D03*
X126290000Y-106215000D03*
X126290000Y-107690000D03*
X124430000Y-109165000D03*
X124430000Y-106215000D03*
X124430000Y-107690000D03*
X122660000Y-109195000D03*
X122660000Y-106245000D03*
X122660000Y-107720000D03*
X121030000Y-106240000D03*
X121030000Y-107715000D03*
X121030000Y-109190000D03*
%TO.N,/VIN*%
X138615000Y-90200000D03*
X137127500Y-90200000D03*
X140102500Y-90200000D03*
X141590000Y-90200000D03*
X113620000Y-87740000D03*
X118068571Y-87740000D03*
X116585714Y-87740000D03*
X124000000Y-87740000D03*
X121034285Y-87740000D03*
X119551428Y-87740000D03*
X122517142Y-87740000D03*
X115102857Y-87740000D03*
%TO.N,GND*%
X139465554Y-97800000D03*
X137797777Y-97800000D03*
X142801108Y-97800000D03*
X136130000Y-97800000D03*
X141133331Y-97800000D03*
X141092216Y-99140000D03*
X137756662Y-99140000D03*
X142801108Y-96300000D03*
X139465554Y-96300000D03*
X141133331Y-96300000D03*
X137797777Y-96300000D03*
X136130000Y-96300000D03*
X136088885Y-99140000D03*
X142760000Y-99140000D03*
X139424439Y-99140000D03*
X113090000Y-97130000D03*
X126432216Y-97130000D03*
X116425554Y-97130000D03*
X123096662Y-97130000D03*
X121428885Y-97130000D03*
X119761108Y-97130000D03*
X124764439Y-97130000D03*
X118093331Y-97130000D03*
X114757777Y-97130000D03*
X113090000Y-98630000D03*
X126432216Y-98630000D03*
X116425554Y-98630000D03*
X123096662Y-98630000D03*
X121428885Y-98630000D03*
X119761108Y-98630000D03*
X124764439Y-98630000D03*
X118093331Y-98630000D03*
X114757777Y-98630000D03*
X119720000Y-99970000D03*
X118052216Y-99970000D03*
X116384439Y-99970000D03*
X114716662Y-99970000D03*
X113048885Y-99970000D03*
X111381108Y-99970000D03*
X109713331Y-99970000D03*
X108045554Y-99970000D03*
X106377777Y-99970000D03*
X104710000Y-99970000D03*
%TO.N,/VIN*%
X115112857Y-89230000D03*
X116595714Y-89230000D03*
X113630000Y-89230000D03*
X121044285Y-89230000D03*
X122527142Y-89230000D03*
X119561428Y-89230000D03*
X124010000Y-89230000D03*
X118078571Y-89230000D03*
X113650000Y-90580000D03*
X115132857Y-90580000D03*
X116615714Y-90580000D03*
X121064285Y-90580000D03*
X118098571Y-90580000D03*
X119581428Y-90580000D03*
X122547142Y-90580000D03*
X124030000Y-90580000D03*
%TO.N,/LX1*%
X128830000Y-96460000D03*
X127350000Y-91520000D03*
%TO.N,GND*%
X144080000Y-91150000D03*
%TO.N,/VIN*%
X130440000Y-87030000D03*
%TO.N,GND*%
X141330000Y-87580000D03*
%TO.N,/VIN*%
X133720000Y-87650000D03*
X142030000Y-91370000D03*
X140542500Y-91370000D03*
X139055000Y-91370000D03*
X137567500Y-91370000D03*
X136080000Y-91370000D03*
X129060000Y-90500000D03*
%TD*%
D33*
%TO.N,/VIN*%
X132630000Y-88740000D02*
X133720000Y-87650000D01*
%TO.N,Net-(C6-Pad1)*%
X128285978Y-91860000D02*
X128285978Y-91431364D01*
X128285978Y-91431364D02*
X125829614Y-88975000D01*
X125829614Y-88975000D02*
X125520000Y-88975000D01*
%TO.N,/LX1*%
X125520000Y-90525000D02*
X126355000Y-90525000D01*
X126355000Y-90525000D02*
X127350000Y-91520000D01*
%TO.N,Net-(J3-Pad4)*%
X157650000Y-91700000D02*
X157860000Y-91490000D01*
X157860000Y-91490000D02*
X157860000Y-88760000D01*
X153540000Y-92510000D02*
X157360000Y-92510000D01*
X157360000Y-92510000D02*
X157650000Y-92220000D01*
X152740000Y-91710000D02*
X153540000Y-92510000D01*
X157650000Y-92220000D02*
X157650000Y-91700000D01*
%TO.N,/SCL*%
X156630000Y-91700000D02*
X156630000Y-90070000D01*
X156630000Y-90070000D02*
X155320000Y-88760000D01*
%TO.N,/SDA*%
X151720000Y-91710000D02*
X151720000Y-89820000D01*
X151720000Y-89820000D02*
X152780000Y-88760000D01*
%TO.N,/SCL*%
X130200000Y-88860000D02*
X130200000Y-90950000D01*
X155320000Y-88760000D02*
X151460480Y-84900480D01*
X151460480Y-84900480D02*
X130313802Y-84900480D01*
X129130480Y-86083802D02*
X129130480Y-87790480D01*
X130313802Y-84900480D02*
X129130480Y-86083802D01*
X129130480Y-87790480D02*
X130200000Y-88860000D01*
%TO.N,/SDA*%
X129580000Y-86270000D02*
X130500000Y-85350000D01*
X129580000Y-87450000D02*
X129580000Y-86270000D01*
X149370000Y-85350000D02*
X152780000Y-88760000D01*
X130755000Y-91492500D02*
X130755000Y-88625000D01*
X130755000Y-88625000D02*
X129580000Y-87450000D01*
X130500000Y-85350000D02*
X149370000Y-85350000D01*
%TO.N,/VIN*%
X131690000Y-86170000D02*
X131300000Y-86170000D01*
X131300000Y-86170000D02*
X130440000Y-87030000D01*
%TO.N,GND*%
X133419897Y-86925489D02*
X136775489Y-86925489D01*
X136775489Y-86925489D02*
X140675489Y-86925489D01*
X136765000Y-87840000D02*
X136765000Y-86935978D01*
X136765000Y-86935978D02*
X136775489Y-86925489D01*
X131780000Y-88565386D02*
X133419897Y-86925489D01*
X140675489Y-86925489D02*
X141330000Y-87580000D01*
X131780000Y-88565386D02*
X131780000Y-91442500D01*
X133117500Y-92955000D02*
X133830000Y-92955000D01*
X133830000Y-92955000D02*
X134620000Y-92165000D01*
X134620000Y-90745718D02*
X135556678Y-89809040D01*
X136067396Y-89809040D02*
X136616436Y-89260000D01*
X144080000Y-91130000D02*
X144080000Y-91150000D01*
X134620000Y-92165000D02*
X134620000Y-90745718D01*
X135556678Y-89809040D02*
X136067396Y-89809040D01*
X142210000Y-89260000D02*
X144080000Y-91130000D01*
X136616436Y-89260000D02*
X142210000Y-89260000D01*
%TO.N,/VOUT*%
X133117500Y-92455000D02*
X133655000Y-92455000D01*
X144130000Y-88780000D02*
X148440000Y-93090000D01*
X133655000Y-92455000D02*
X134100000Y-92010000D01*
X135881198Y-89359520D02*
X136460718Y-88780000D01*
X134100000Y-90630000D02*
X135370480Y-89359520D01*
X161620000Y-93560000D02*
X161620000Y-102560000D01*
X134100000Y-92010000D02*
X134100000Y-90630000D01*
X148440000Y-93090000D02*
X161150000Y-93090000D01*
X135370480Y-89359520D02*
X135881198Y-89359520D01*
X161150000Y-93090000D02*
X161620000Y-93560000D01*
X136460718Y-88780000D02*
X144130000Y-88780000D01*
X161620000Y-102560000D02*
X159140000Y-105040000D01*
%TO.N,GND*%
X136765000Y-87840000D02*
X135695000Y-88910000D01*
X135695000Y-88910000D02*
X134990000Y-88910000D01*
X134990000Y-88910000D02*
X132940000Y-90960000D01*
%TO.N,/VIN*%
X135215000Y-87840000D02*
X133910000Y-87840000D01*
X133910000Y-87840000D02*
X133720000Y-87650000D01*
%TO.N,Net-(R3-Pad2)*%
X131280000Y-91442500D02*
X131280000Y-87600000D01*
X131280000Y-87600000D02*
X131690000Y-87190000D01*
%TO.N,/VIN*%
X132630000Y-88750000D02*
X132630000Y-88740000D01*
%TO.N,Net-(R4-Pad2)*%
X132305000Y-91492500D02*
X132305000Y-90095000D01*
X132305000Y-90095000D02*
X132630000Y-89770000D01*
%TO.N,/VIN*%
X129060000Y-90500000D02*
X128910000Y-90650000D01*
X128910000Y-90650000D02*
X128910000Y-91803226D01*
X128910000Y-91803226D02*
X129561774Y-92455000D01*
X129561774Y-92455000D02*
X129942500Y-92455000D01*
X131680000Y-92980000D02*
X132155000Y-93455000D01*
X131245000Y-93115000D02*
X130915000Y-93445000D01*
X131530000Y-92980000D02*
X131680000Y-92980000D01*
%TO.N,Net-(C6-Pad1)*%
X128285978Y-91860000D02*
X129380978Y-92955000D01*
X129380978Y-92955000D02*
X129942500Y-92955000D01*
%TD*%
%TA.AperFunction,Conductor*%
%TO.N,GND*%
G36*
X130596545Y-93993733D02*
G01*
X130698704Y-94045785D01*
X130706443Y-94047515D01*
X130706446Y-94047516D01*
X130847168Y-94078972D01*
X130847171Y-94078972D01*
X130854909Y-94080702D01*
X130862834Y-94080453D01*
X130862835Y-94080453D01*
X130891236Y-94079560D01*
X130930042Y-94078340D01*
X130998756Y-94096192D01*
X131046912Y-94148360D01*
X131060000Y-94204278D01*
X131060000Y-94822223D01*
X131039998Y-94890344D01*
X131028322Y-94905765D01*
X130477426Y-95527745D01*
X130417286Y-95565478D01*
X130383556Y-95570202D01*
X129982456Y-95571640D01*
X129049657Y-95574983D01*
X129023022Y-95572232D01*
X128925487Y-95551500D01*
X128734513Y-95551500D01*
X128728060Y-95552872D01*
X128728047Y-95552873D01*
X128629461Y-95573829D01*
X128603719Y-95576582D01*
X127818481Y-95579396D01*
X127668117Y-95579935D01*
X127650000Y-95580000D01*
X127649977Y-95593374D01*
X127640217Y-101224556D01*
X127620097Y-101292642D01*
X127566361Y-101339042D01*
X127514557Y-101350338D01*
X93230649Y-101442643D01*
X93162475Y-101422824D01*
X93115838Y-101369294D01*
X93104310Y-101316643D01*
X93104310Y-94110938D01*
X93124312Y-94042817D01*
X93177968Y-93996324D01*
X93230293Y-93984938D01*
X126701076Y-93980379D01*
X126740760Y-93986786D01*
X126813715Y-94010984D01*
X126813717Y-94010984D01*
X126820243Y-94013149D01*
X126827080Y-94013849D01*
X126827082Y-94013850D01*
X126868401Y-94018083D01*
X126921268Y-94023500D01*
X127518732Y-94023500D01*
X127521978Y-94023163D01*
X127521982Y-94023163D01*
X127556083Y-94019625D01*
X127621019Y-94012887D01*
X127699469Y-93986714D01*
X127739327Y-93980237D01*
X129480000Y-93980000D01*
X130539343Y-93980000D01*
X130596545Y-93993733D01*
G37*
%TD.AperFunction*%
%TD*%
%TA.AperFunction,Conductor*%
%TO.N,GND*%
G36*
X160928543Y-93979870D02*
G01*
X160975075Y-94033491D01*
X160986500Y-94085918D01*
X160986500Y-101308895D01*
X160966498Y-101377016D01*
X160912842Y-101423509D01*
X160860229Y-101434894D01*
X136624319Y-101382226D01*
X135689283Y-101380194D01*
X135621206Y-101360044D01*
X135574830Y-101306287D01*
X135570589Y-101295699D01*
X133585967Y-95607104D01*
X133580000Y-95590000D01*
X133565809Y-95589852D01*
X133304982Y-95587135D01*
X132675926Y-95580583D01*
X132608018Y-95559873D01*
X132582917Y-95538132D01*
X132031678Y-94915765D01*
X132001485Y-94851509D01*
X132000000Y-94832223D01*
X132000000Y-94218006D01*
X132020002Y-94149885D01*
X132073658Y-94103392D01*
X132128954Y-94092270D01*
X132134943Y-94093219D01*
X132142836Y-94092473D01*
X132142837Y-94092473D01*
X132286405Y-94078903D01*
X132286409Y-94078902D01*
X132294292Y-94078157D01*
X132323611Y-94067601D01*
X132437429Y-94026625D01*
X132437431Y-94026624D01*
X132444889Y-94023939D01*
X132477483Y-94001788D01*
X132548306Y-93980000D01*
X133580000Y-93980000D01*
X135734927Y-93978414D01*
X135774687Y-93984821D01*
X135883715Y-94020984D01*
X135883717Y-94020984D01*
X135890243Y-94023149D01*
X135897080Y-94023849D01*
X135897082Y-94023850D01*
X135938401Y-94028083D01*
X135991268Y-94033500D01*
X136588732Y-94033500D01*
X136591978Y-94033163D01*
X136591982Y-94033163D01*
X136684161Y-94023599D01*
X136684165Y-94023598D01*
X136691019Y-94022887D01*
X136697555Y-94020706D01*
X136697557Y-94020706D01*
X136807364Y-93984071D01*
X136847147Y-93977595D01*
X160860407Y-93959918D01*
X160928543Y-93979870D01*
G37*
%TD.AperFunction*%
%TD*%
%TA.AperFunction,Conductor*%
%TO.N,/VIN*%
G36*
X142091105Y-89605502D02*
G01*
X142112079Y-89622405D01*
X142929387Y-90439713D01*
X142963413Y-90502025D01*
X142966292Y-90528565D01*
X142972122Y-93554656D01*
X142972215Y-93603147D01*
X142952344Y-93671306D01*
X142898778Y-93717903D01*
X142845559Y-93729388D01*
X133505343Y-93680654D01*
X133437327Y-93660297D01*
X133391115Y-93606400D01*
X133380000Y-93554656D01*
X133380000Y-93456000D01*
X133400002Y-93387879D01*
X133453658Y-93341386D01*
X133506000Y-93330000D01*
X133980000Y-93330000D01*
X133994906Y-93275049D01*
X134034829Y-93212597D01*
X134042455Y-93208194D01*
X134049609Y-93199669D01*
X134066685Y-93179318D01*
X134074111Y-93171215D01*
X134836215Y-92409111D01*
X134844319Y-92401684D01*
X134864749Y-92384541D01*
X134873194Y-92377455D01*
X134878707Y-92367906D01*
X134892039Y-92344815D01*
X134897945Y-92335544D01*
X134913230Y-92313715D01*
X134919554Y-92304684D01*
X134922408Y-92294034D01*
X134923885Y-92290866D01*
X134925077Y-92287590D01*
X134930588Y-92278045D01*
X134937130Y-92240942D01*
X134939509Y-92230210D01*
X134949264Y-92193807D01*
X134945979Y-92156257D01*
X134945500Y-92145276D01*
X134945500Y-90932734D01*
X134965502Y-90864613D01*
X134982405Y-90843639D01*
X135654599Y-90171445D01*
X135716911Y-90137419D01*
X135743694Y-90134540D01*
X136047686Y-90134540D01*
X136058668Y-90135020D01*
X136085216Y-90137343D01*
X136085218Y-90137343D01*
X136096203Y-90138304D01*
X136132611Y-90128548D01*
X136143338Y-90126170D01*
X136146697Y-90125578D01*
X136180441Y-90119628D01*
X136189986Y-90114117D01*
X136193262Y-90112925D01*
X136196430Y-90111448D01*
X136207080Y-90108594D01*
X136237940Y-90086985D01*
X136247211Y-90081079D01*
X136270302Y-90067747D01*
X136279851Y-90062234D01*
X136304081Y-90033357D01*
X136311507Y-90025255D01*
X136714357Y-89622405D01*
X136776669Y-89588379D01*
X136803452Y-89585500D01*
X142022984Y-89585500D01*
X142091105Y-89605502D01*
G37*
%TD.AperFunction*%
%TD*%
%TA.AperFunction,Conductor*%
%TO.N,/VOUT*%
G36*
X162077795Y-102833657D02*
G01*
X162124296Y-102887306D01*
X162135690Y-102939665D01*
X162135690Y-109354362D01*
X162134190Y-109373746D01*
X162130504Y-109397420D01*
X162131668Y-109406322D01*
X162131668Y-109406324D01*
X162131942Y-109408416D01*
X162132399Y-109437103D01*
X162121496Y-109547802D01*
X162116679Y-109572022D01*
X162078241Y-109698735D01*
X162068792Y-109721545D01*
X162006379Y-109838312D01*
X161992656Y-109858850D01*
X161908662Y-109961197D01*
X161891197Y-109978662D01*
X161788850Y-110062656D01*
X161768312Y-110076379D01*
X161651545Y-110138792D01*
X161628735Y-110148241D01*
X161502022Y-110186679D01*
X161477802Y-110191496D01*
X161416271Y-110197556D01*
X161373854Y-110201734D01*
X161357813Y-110201282D01*
X161357804Y-110201995D01*
X161348835Y-110201886D01*
X161339960Y-110200504D01*
X161308481Y-110204620D01*
X161292132Y-110205684D01*
X119835086Y-110199536D01*
X119766970Y-110179524D01*
X119720485Y-110125861D01*
X119709108Y-110074214D01*
X119670753Y-102946470D01*
X119690388Y-102878243D01*
X119743793Y-102831462D01*
X119796733Y-102819792D01*
X157943594Y-102814255D01*
X162009672Y-102813665D01*
X162077795Y-102833657D01*
G37*
%TD.AperFunction*%
%TD*%
%TA.AperFunction,Conductor*%
%TO.N,/LX1*%
G36*
X131723474Y-94900002D02*
G01*
X131747342Y-94919895D01*
X132846101Y-96093783D01*
X132878048Y-96157185D01*
X132880109Y-96179603D01*
X132880277Y-96255345D01*
X132889721Y-100533722D01*
X132869869Y-100601887D01*
X132816316Y-100648498D01*
X132763721Y-100660000D01*
X128586000Y-100660000D01*
X128517879Y-100639998D01*
X128471386Y-100586342D01*
X128460000Y-100534000D01*
X128460000Y-96255345D01*
X128480002Y-96187224D01*
X128533658Y-96140731D01*
X128585343Y-96129347D01*
X130380000Y-96120000D01*
X131322165Y-94927873D01*
X131380096Y-94886831D01*
X131421019Y-94880000D01*
X131655353Y-94880000D01*
X131723474Y-94900002D01*
G37*
%TD.AperFunction*%
%TD*%
%TA.AperFunction,Conductor*%
%TO.N,/VIN*%
G36*
X123861106Y-85470944D02*
G01*
X123929213Y-85490990D01*
X123975672Y-85544676D01*
X123983593Y-85567739D01*
X124841069Y-89166402D01*
X124844500Y-89195607D01*
X124844500Y-89233488D01*
X124860281Y-89333126D01*
X124864782Y-89341959D01*
X124891996Y-89395370D01*
X124902298Y-89423368D01*
X125009626Y-89873803D01*
X125005958Y-89944701D01*
X124976152Y-89992100D01*
X124921472Y-90046780D01*
X124860281Y-90166874D01*
X124844500Y-90266512D01*
X124844500Y-90783488D01*
X124860281Y-90883126D01*
X124921472Y-91003220D01*
X125016780Y-91098528D01*
X125136874Y-91159719D01*
X125146663Y-91161269D01*
X125146665Y-91161270D01*
X125236512Y-91175500D01*
X125236270Y-91177028D01*
X125296209Y-91199877D01*
X125338345Y-91257018D01*
X125342542Y-91270987D01*
X125440000Y-91680000D01*
X126318964Y-91737772D01*
X126728496Y-91764690D01*
X126795158Y-91789117D01*
X126825346Y-91822932D01*
X126825464Y-91822841D01*
X126921718Y-91948282D01*
X127047159Y-92044536D01*
X127193238Y-92105044D01*
X127350000Y-92125682D01*
X127358188Y-92124604D01*
X127498574Y-92106122D01*
X127506762Y-92105044D01*
X127585439Y-92072455D01*
X127645213Y-92047696D01*
X127645215Y-92047695D01*
X127652841Y-92044536D01*
X127659391Y-92039510D01*
X127664175Y-92036748D01*
X127733171Y-92020010D01*
X127800262Y-92043231D01*
X127814495Y-92055031D01*
X127886870Y-92124604D01*
X129120000Y-93310000D01*
X129367974Y-93317749D01*
X129637936Y-93326186D01*
X129705398Y-93348307D01*
X129750193Y-93403388D01*
X129760000Y-93452125D01*
X129760000Y-93554000D01*
X129739998Y-93622121D01*
X129686342Y-93668614D01*
X129634000Y-93680000D01*
X128360000Y-93680000D01*
X93215794Y-93620214D01*
X93147707Y-93600096D01*
X93101305Y-93546361D01*
X93090008Y-93494206D01*
X93090020Y-93326186D01*
X93090536Y-85577082D01*
X93110543Y-85508962D01*
X93164201Y-85462473D01*
X93216618Y-85451090D01*
X123861106Y-85470944D01*
G37*
%TD.AperFunction*%
%TD*%
M02*
