%TF.GenerationSoftware,KiCad,Pcbnew,(6.0.0-0)*%
%TF.CreationDate,2022-06-13T23:48:26-07:00*%
%TF.ProjectId,max20499_breakout,6d617832-3034-4393-995f-627265616b6f,rev?*%
%TF.SameCoordinates,Original*%
%TF.FileFunction,Legend,Top*%
%TF.FilePolarity,Positive*%
%FSLAX46Y46*%
G04 Gerber Fmt 4.6, Leading zero omitted, Abs format (unit mm)*
G04 Created by KiCad (PCBNEW (6.0.0-0)) date 2022-06-13 23:48:26*
%MOMM*%
%LPD*%
G01*
G04 APERTURE LIST*
G04 Aperture macros list*
%AMRoundRect*
0 Rectangle with rounded corners*
0 $1 Rounding radius*
0 $2 $3 $4 $5 $6 $7 $8 $9 X,Y pos of 4 corners*
0 Add a 4 corners polygon primitive as box body*
4,1,4,$2,$3,$4,$5,$6,$7,$8,$9,$2,$3,0*
0 Add four circle primitives for the rounded corners*
1,1,$1+$1,$2,$3*
1,1,$1+$1,$4,$5*
1,1,$1+$1,$6,$7*
1,1,$1+$1,$8,$9*
0 Add four rect primitives between the rounded corners*
20,1,$1+$1,$2,$3,$4,$5,0*
20,1,$1+$1,$4,$5,$6,$7,0*
20,1,$1+$1,$6,$7,$8,$9,0*
20,1,$1+$1,$8,$9,$2,$3,0*%
%AMFreePoly0*
4,1,17,0.000354,1.075354,0.000500,1.075000,0.000500,0.000000,0.000354,-0.000354,0.000000,-0.000500,-0.900000,-0.000500,-0.900354,-0.000354,-0.900500,0.000000,-0.900500,0.400000,-0.900354,0.400354,-0.900000,0.400500,-0.450500,0.400500,-0.450500,1.075000,-0.450354,1.075354,-0.450000,1.075500,0.000000,1.075500,0.000354,1.075354,0.000354,1.075354,$1*%
%AMFreePoly1*
4,1,17,0.450354,1.075354,0.450500,1.075000,0.450500,0.400500,0.900000,0.400500,0.900354,0.400354,0.900500,0.400000,0.900500,0.000000,0.900354,-0.000354,0.900000,-0.000500,0.000000,-0.000500,-0.000354,-0.000354,-0.000500,0.000000,-0.000500,1.075000,-0.000354,1.075354,0.000000,1.075500,0.450000,1.075500,0.450354,1.075354,0.450354,1.075354,$1*%
%AMFreePoly2*
4,1,17,0.000354,0.000354,0.000500,0.000000,0.000500,-0.350000,0.000354,-0.350354,0.000000,-0.350500,-0.975000,-0.350500,-0.975354,-0.350354,-0.975500,-0.350000,-0.975500,-0.250500,-1.550000,-0.250500,-1.550354,-0.250354,-1.550500,-0.250000,-1.550500,0.000000,-1.550354,0.000354,-1.550000,0.000500,0.000000,0.000500,0.000354,0.000354,0.000354,0.000354,$1*%
%AMFreePoly3*
4,1,29,0.000035,0.000035,0.000050,0.000000,0.000050,-0.900000,0.000035,-0.900035,0.000000,-0.900050,-0.499950,-0.900050,-0.499950,-1.600000,-0.499965,-1.600035,-0.500000,-1.600050,-0.950000,-1.600050,-0.950035,-1.600035,-0.950050,-1.600000,-0.950050,-0.900050,-1.575000,-0.900050,-1.575035,-0.900035,-1.575050,-0.900000,-1.575050,-0.650000,-1.575035,-0.649965,-1.575000,-0.649950,-0.950050,-0.649950,
-0.950050,-0.250050,-1.575000,-0.250050,-1.575035,-0.250035,-1.575050,-0.250000,-1.575050,0.000000,-1.575035,0.000035,-1.575000,0.000050,0.000000,0.000050,0.000035,0.000035,0.000035,0.000035,$1*%
%AMFreePoly4*
4,1,29,1.575035,0.000035,1.575050,0.000000,1.575050,-0.250000,1.575035,-0.250035,1.575000,-0.250050,0.950050,-0.250050,0.950050,-0.649950,1.575000,-0.649950,1.575035,-0.649965,1.575050,-0.650000,1.575050,-0.900000,1.575035,-0.900035,1.575000,-0.900050,0.950050,-0.900050,0.950050,-1.600000,0.950035,-1.600035,0.950000,-1.600050,0.500000,-1.600050,0.499965,-1.600035,0.499950,-1.600000,
0.499950,-0.900050,0.000000,-0.900050,-0.000035,-0.900035,-0.000050,-0.900000,-0.000050,0.000000,-0.000035,0.000035,0.000000,0.000050,1.575000,0.000050,1.575035,0.000035,1.575035,0.000035,$1*%
%AMFreePoly5*
4,1,17,1.550354,0.000354,1.550500,0.000000,1.550500,-0.250000,1.550354,-0.250354,1.550000,-0.250500,0.975500,-0.250500,0.975500,-0.350000,0.975354,-0.350354,0.975000,-0.350500,0.000000,-0.350500,-0.000354,-0.350354,-0.000500,-0.350000,-0.000500,0.000000,-0.000354,0.000354,0.000000,0.000500,1.550000,0.000500,1.550354,0.000354,1.550354,0.000354,$1*%
G04 Aperture macros list end*
%ADD10C,0.150000*%
%ADD11C,0.120000*%
%ADD12C,0.312240*%
%ADD13RoundRect,0.135000X-0.185000X0.135000X-0.185000X-0.135000X0.185000X-0.135000X0.185000X0.135000X0*%
%ADD14RoundRect,0.135000X0.135000X0.185000X-0.135000X0.185000X-0.135000X-0.185000X0.135000X-0.185000X0*%
%ADD15C,2.520000*%
%ADD16RoundRect,0.225000X-0.250000X0.225000X-0.250000X-0.225000X0.250000X-0.225000X0.250000X0.225000X0*%
%ADD17RoundRect,0.250000X-0.475000X0.250000X-0.475000X-0.250000X0.475000X-0.250000X0.475000X0.250000X0*%
%ADD18R,1.700000X1.700000*%
%ADD19O,1.700000X1.700000*%
%ADD20RoundRect,0.250000X0.650000X-0.325000X0.650000X0.325000X-0.650000X0.325000X-0.650000X-0.325000X0*%
%ADD21RoundRect,0.225000X-0.225000X-0.250000X0.225000X-0.250000X0.225000X0.250000X-0.225000X0.250000X0*%
%ADD22R,0.650000X0.700000*%
%ADD23FreePoly0,0.000000*%
%ADD24R,0.350000X1.025000*%
%ADD25R,0.300000X0.925000*%
%ADD26FreePoly1,0.000000*%
%ADD27R,0.925000X0.300000*%
%ADD28FreePoly2,0.000000*%
%ADD29C,0.100000*%
%ADD30FreePoly3,0.000000*%
%ADD31R,0.350000X1.925000*%
%ADD32FreePoly4,0.000000*%
%ADD33FreePoly5,0.000000*%
%ADD34R,2.700000X3.850000*%
G04 APERTURE END LIST*
D10*
X94241428Y-109392380D02*
X94241428Y-108392380D01*
X94574761Y-109106666D01*
X94908095Y-108392380D01*
X94908095Y-109392380D01*
X95336666Y-109106666D02*
X95812857Y-109106666D01*
X95241428Y-109392380D02*
X95574761Y-108392380D01*
X95908095Y-109392380D01*
X96146190Y-108392380D02*
X96812857Y-109392380D01*
X96812857Y-108392380D02*
X96146190Y-109392380D01*
X97146190Y-108487619D02*
X97193809Y-108440000D01*
X97289047Y-108392380D01*
X97527142Y-108392380D01*
X97622380Y-108440000D01*
X97670000Y-108487619D01*
X97717619Y-108582857D01*
X97717619Y-108678095D01*
X97670000Y-108820952D01*
X97098571Y-109392380D01*
X97717619Y-109392380D01*
X98336666Y-108392380D02*
X98431904Y-108392380D01*
X98527142Y-108440000D01*
X98574761Y-108487619D01*
X98622380Y-108582857D01*
X98670000Y-108773333D01*
X98670000Y-109011428D01*
X98622380Y-109201904D01*
X98574761Y-109297142D01*
X98527142Y-109344761D01*
X98431904Y-109392380D01*
X98336666Y-109392380D01*
X98241428Y-109344761D01*
X98193809Y-109297142D01*
X98146190Y-109201904D01*
X98098571Y-109011428D01*
X98098571Y-108773333D01*
X98146190Y-108582857D01*
X98193809Y-108487619D01*
X98241428Y-108440000D01*
X98336666Y-108392380D01*
X99527142Y-108725714D02*
X99527142Y-109392380D01*
X99289047Y-108344761D02*
X99050952Y-109059047D01*
X99670000Y-109059047D01*
X100098571Y-109392380D02*
X100289047Y-109392380D01*
X100384285Y-109344761D01*
X100431904Y-109297142D01*
X100527142Y-109154285D01*
X100574761Y-108963809D01*
X100574761Y-108582857D01*
X100527142Y-108487619D01*
X100479523Y-108440000D01*
X100384285Y-108392380D01*
X100193809Y-108392380D01*
X100098571Y-108440000D01*
X100050952Y-108487619D01*
X100003333Y-108582857D01*
X100003333Y-108820952D01*
X100050952Y-108916190D01*
X100098571Y-108963809D01*
X100193809Y-109011428D01*
X100384285Y-109011428D01*
X100479523Y-108963809D01*
X100527142Y-108916190D01*
X100574761Y-108820952D01*
X101050952Y-109392380D02*
X101241428Y-109392380D01*
X101336666Y-109344761D01*
X101384285Y-109297142D01*
X101479523Y-109154285D01*
X101527142Y-108963809D01*
X101527142Y-108582857D01*
X101479523Y-108487619D01*
X101431904Y-108440000D01*
X101336666Y-108392380D01*
X101146190Y-108392380D01*
X101050952Y-108440000D01*
X101003333Y-108487619D01*
X100955714Y-108582857D01*
X100955714Y-108820952D01*
X101003333Y-108916190D01*
X101050952Y-108963809D01*
X101146190Y-109011428D01*
X101336666Y-109011428D01*
X101431904Y-108963809D01*
X101479523Y-108916190D01*
X101527142Y-108820952D01*
X103193809Y-109392380D02*
X102717619Y-109392380D01*
X102717619Y-108392380D01*
X103670000Y-109392380D02*
X103574761Y-109344761D01*
X103527142Y-109297142D01*
X103479523Y-109201904D01*
X103479523Y-108916190D01*
X103527142Y-108820952D01*
X103574761Y-108773333D01*
X103670000Y-108725714D01*
X103812857Y-108725714D01*
X103908095Y-108773333D01*
X103955714Y-108820952D01*
X104003333Y-108916190D01*
X104003333Y-109201904D01*
X103955714Y-109297142D01*
X103908095Y-109344761D01*
X103812857Y-109392380D01*
X103670000Y-109392380D01*
X104336666Y-108725714D02*
X104527142Y-109392380D01*
X104717619Y-108916190D01*
X104908095Y-109392380D01*
X105098571Y-108725714D01*
X106098571Y-108392380D02*
X106431904Y-109392380D01*
X106765238Y-108392380D01*
X107241428Y-109392380D02*
X107146190Y-109344761D01*
X107098571Y-109297142D01*
X107050952Y-109201904D01*
X107050952Y-108916190D01*
X107098571Y-108820952D01*
X107146190Y-108773333D01*
X107241428Y-108725714D01*
X107384285Y-108725714D01*
X107479523Y-108773333D01*
X107527142Y-108820952D01*
X107574761Y-108916190D01*
X107574761Y-109201904D01*
X107527142Y-109297142D01*
X107479523Y-109344761D01*
X107384285Y-109392380D01*
X107241428Y-109392380D01*
X108146190Y-109392380D02*
X108050952Y-109344761D01*
X108003333Y-109249523D01*
X108003333Y-108392380D01*
X108384285Y-108725714D02*
X108765238Y-108725714D01*
X108527142Y-108392380D02*
X108527142Y-109249523D01*
X108574761Y-109344761D01*
X108670000Y-109392380D01*
X108765238Y-109392380D01*
X109527142Y-109392380D02*
X109527142Y-108868571D01*
X109479523Y-108773333D01*
X109384285Y-108725714D01*
X109193809Y-108725714D01*
X109098571Y-108773333D01*
X109527142Y-109344761D02*
X109431904Y-109392380D01*
X109193809Y-109392380D01*
X109098571Y-109344761D01*
X109050952Y-109249523D01*
X109050952Y-109154285D01*
X109098571Y-109059047D01*
X109193809Y-109011428D01*
X109431904Y-109011428D01*
X109527142Y-108963809D01*
X110431904Y-108725714D02*
X110431904Y-109535238D01*
X110384285Y-109630476D01*
X110336666Y-109678095D01*
X110241428Y-109725714D01*
X110098571Y-109725714D01*
X110003333Y-109678095D01*
X110431904Y-109344761D02*
X110336666Y-109392380D01*
X110146190Y-109392380D01*
X110050952Y-109344761D01*
X110003333Y-109297142D01*
X109955714Y-109201904D01*
X109955714Y-108916190D01*
X110003333Y-108820952D01*
X110050952Y-108773333D01*
X110146190Y-108725714D01*
X110336666Y-108725714D01*
X110431904Y-108773333D01*
X111289047Y-109344761D02*
X111193809Y-109392380D01*
X111003333Y-109392380D01*
X110908095Y-109344761D01*
X110860476Y-109249523D01*
X110860476Y-108868571D01*
X110908095Y-108773333D01*
X111003333Y-108725714D01*
X111193809Y-108725714D01*
X111289047Y-108773333D01*
X111336666Y-108868571D01*
X111336666Y-108963809D01*
X110860476Y-109059047D01*
X112860476Y-108868571D02*
X113003333Y-108916190D01*
X113050952Y-108963809D01*
X113098571Y-109059047D01*
X113098571Y-109201904D01*
X113050952Y-109297142D01*
X113003333Y-109344761D01*
X112908095Y-109392380D01*
X112527142Y-109392380D01*
X112527142Y-108392380D01*
X112860476Y-108392380D01*
X112955714Y-108440000D01*
X113003333Y-108487619D01*
X113050952Y-108582857D01*
X113050952Y-108678095D01*
X113003333Y-108773333D01*
X112955714Y-108820952D01*
X112860476Y-108868571D01*
X112527142Y-108868571D01*
X113955714Y-108725714D02*
X113955714Y-109392380D01*
X113527142Y-108725714D02*
X113527142Y-109249523D01*
X113574761Y-109344761D01*
X113670000Y-109392380D01*
X113812857Y-109392380D01*
X113908095Y-109344761D01*
X113955714Y-109297142D01*
X114860476Y-109344761D02*
X114765238Y-109392380D01*
X114574761Y-109392380D01*
X114479523Y-109344761D01*
X114431904Y-109297142D01*
X114384285Y-109201904D01*
X114384285Y-108916190D01*
X114431904Y-108820952D01*
X114479523Y-108773333D01*
X114574761Y-108725714D01*
X114765238Y-108725714D01*
X114860476Y-108773333D01*
X115289047Y-109392380D02*
X115289047Y-108392380D01*
X115384285Y-109011428D02*
X115670000Y-109392380D01*
X115670000Y-108725714D02*
X115289047Y-109106666D01*
X116765238Y-108725714D02*
X117003333Y-109392380D01*
X117241428Y-108725714D01*
X118146190Y-109392380D02*
X117574761Y-109392380D01*
X117860476Y-109392380D02*
X117860476Y-108392380D01*
X117765238Y-108535238D01*
X117670000Y-108630476D01*
X117574761Y-108678095D01*
%TO.C,R4*%
X131892380Y-89456666D02*
X131416190Y-89790000D01*
X131892380Y-90028095D02*
X130892380Y-90028095D01*
X130892380Y-89647142D01*
X130940000Y-89551904D01*
X130987619Y-89504285D01*
X131082857Y-89456666D01*
X131225714Y-89456666D01*
X131320952Y-89504285D01*
X131368571Y-89551904D01*
X131416190Y-89647142D01*
X131416190Y-90028095D01*
X131225714Y-88599523D02*
X131892380Y-88599523D01*
X130844761Y-88837619D02*
X131559047Y-89075714D01*
X131559047Y-88456666D01*
%TO.C,R3*%
X133322380Y-86866666D02*
X132846190Y-87200000D01*
X133322380Y-87438095D02*
X132322380Y-87438095D01*
X132322380Y-87057142D01*
X132370000Y-86961904D01*
X132417619Y-86914285D01*
X132512857Y-86866666D01*
X132655714Y-86866666D01*
X132750952Y-86914285D01*
X132798571Y-86961904D01*
X132846190Y-87057142D01*
X132846190Y-87438095D01*
X132322380Y-86533333D02*
X132322380Y-85914285D01*
X132703333Y-86247619D01*
X132703333Y-86104761D01*
X132750952Y-86009523D01*
X132798571Y-85961904D01*
X132893809Y-85914285D01*
X133131904Y-85914285D01*
X133227142Y-85961904D01*
X133274761Y-86009523D01*
X133322380Y-86104761D01*
X133322380Y-86390476D01*
X133274761Y-86485714D01*
X133227142Y-86533333D01*
%TO.C,R2*%
X150078333Y-92132380D02*
X149745000Y-91656190D01*
X149506904Y-92132380D02*
X149506904Y-91132380D01*
X149887857Y-91132380D01*
X149983095Y-91180000D01*
X150030714Y-91227619D01*
X150078333Y-91322857D01*
X150078333Y-91465714D01*
X150030714Y-91560952D01*
X149983095Y-91608571D01*
X149887857Y-91656190D01*
X149506904Y-91656190D01*
X150459285Y-91227619D02*
X150506904Y-91180000D01*
X150602142Y-91132380D01*
X150840238Y-91132380D01*
X150935476Y-91180000D01*
X150983095Y-91227619D01*
X151030714Y-91322857D01*
X151030714Y-91418095D01*
X150983095Y-91560952D01*
X150411666Y-92132380D01*
X151030714Y-92132380D01*
%TO.C,R1*%
X155008333Y-92162380D02*
X154675000Y-91686190D01*
X154436904Y-92162380D02*
X154436904Y-91162380D01*
X154817857Y-91162380D01*
X154913095Y-91210000D01*
X154960714Y-91257619D01*
X155008333Y-91352857D01*
X155008333Y-91495714D01*
X154960714Y-91590952D01*
X154913095Y-91638571D01*
X154817857Y-91686190D01*
X154436904Y-91686190D01*
X155960714Y-92162380D02*
X155389285Y-92162380D01*
X155675000Y-92162380D02*
X155675000Y-91162380D01*
X155579761Y-91305238D01*
X155484523Y-91400476D01*
X155389285Y-91448095D01*
%TO.C,C2*%
X127617142Y-96936666D02*
X127664761Y-96984285D01*
X127712380Y-97127142D01*
X127712380Y-97222380D01*
X127664761Y-97365238D01*
X127569523Y-97460476D01*
X127474285Y-97508095D01*
X127283809Y-97555714D01*
X127140952Y-97555714D01*
X126950476Y-97508095D01*
X126855238Y-97460476D01*
X126760000Y-97365238D01*
X126712380Y-97222380D01*
X126712380Y-97127142D01*
X126760000Y-96984285D01*
X126807619Y-96936666D01*
X126807619Y-96555714D02*
X126760000Y-96508095D01*
X126712380Y-96412857D01*
X126712380Y-96174761D01*
X126760000Y-96079523D01*
X126807619Y-96031904D01*
X126902857Y-95984285D01*
X126998095Y-95984285D01*
X127140952Y-96031904D01*
X127712380Y-96603333D01*
X127712380Y-95984285D01*
%TO.C,C15*%
X122167142Y-97812857D02*
X122214761Y-97860476D01*
X122262380Y-98003333D01*
X122262380Y-98098571D01*
X122214761Y-98241428D01*
X122119523Y-98336666D01*
X122024285Y-98384285D01*
X121833809Y-98431904D01*
X121690952Y-98431904D01*
X121500476Y-98384285D01*
X121405238Y-98336666D01*
X121310000Y-98241428D01*
X121262380Y-98098571D01*
X121262380Y-98003333D01*
X121310000Y-97860476D01*
X121357619Y-97812857D01*
X122262380Y-96860476D02*
X122262380Y-97431904D01*
X122262380Y-97146190D02*
X121262380Y-97146190D01*
X121405238Y-97241428D01*
X121500476Y-97336666D01*
X121548095Y-97431904D01*
X121262380Y-95955714D02*
X121262380Y-96431904D01*
X121738571Y-96479523D01*
X121690952Y-96431904D01*
X121643333Y-96336666D01*
X121643333Y-96098571D01*
X121690952Y-96003333D01*
X121738571Y-95955714D01*
X121833809Y-95908095D01*
X122071904Y-95908095D01*
X122167142Y-95955714D01*
X122214761Y-96003333D01*
X122262380Y-96098571D01*
X122262380Y-96336666D01*
X122214761Y-96431904D01*
X122167142Y-96479523D01*
%TO.C,C8*%
X126457142Y-105676666D02*
X126504761Y-105724285D01*
X126552380Y-105867142D01*
X126552380Y-105962380D01*
X126504761Y-106105238D01*
X126409523Y-106200476D01*
X126314285Y-106248095D01*
X126123809Y-106295714D01*
X125980952Y-106295714D01*
X125790476Y-106248095D01*
X125695238Y-106200476D01*
X125600000Y-106105238D01*
X125552380Y-105962380D01*
X125552380Y-105867142D01*
X125600000Y-105724285D01*
X125647619Y-105676666D01*
X125980952Y-105105238D02*
X125933333Y-105200476D01*
X125885714Y-105248095D01*
X125790476Y-105295714D01*
X125742857Y-105295714D01*
X125647619Y-105248095D01*
X125600000Y-105200476D01*
X125552380Y-105105238D01*
X125552380Y-104914761D01*
X125600000Y-104819523D01*
X125647619Y-104771904D01*
X125742857Y-104724285D01*
X125790476Y-104724285D01*
X125885714Y-104771904D01*
X125933333Y-104819523D01*
X125980952Y-104914761D01*
X125980952Y-105105238D01*
X126028571Y-105200476D01*
X126076190Y-105248095D01*
X126171428Y-105295714D01*
X126361904Y-105295714D01*
X126457142Y-105248095D01*
X126504761Y-105200476D01*
X126552380Y-105105238D01*
X126552380Y-104914761D01*
X126504761Y-104819523D01*
X126457142Y-104771904D01*
X126361904Y-104724285D01*
X126171428Y-104724285D01*
X126076190Y-104771904D01*
X126028571Y-104819523D01*
X125980952Y-104914761D01*
%TO.C,C1*%
X124947142Y-96766666D02*
X124994761Y-96814285D01*
X125042380Y-96957142D01*
X125042380Y-97052380D01*
X124994761Y-97195238D01*
X124899523Y-97290476D01*
X124804285Y-97338095D01*
X124613809Y-97385714D01*
X124470952Y-97385714D01*
X124280476Y-97338095D01*
X124185238Y-97290476D01*
X124090000Y-97195238D01*
X124042380Y-97052380D01*
X124042380Y-96957142D01*
X124090000Y-96814285D01*
X124137619Y-96766666D01*
X125042380Y-95814285D02*
X125042380Y-96385714D01*
X125042380Y-96100000D02*
X124042380Y-96100000D01*
X124185238Y-96195238D01*
X124280476Y-96290476D01*
X124328095Y-96385714D01*
%TO.C,C5*%
X138383333Y-88197142D02*
X138335714Y-88244761D01*
X138192857Y-88292380D01*
X138097619Y-88292380D01*
X137954761Y-88244761D01*
X137859523Y-88149523D01*
X137811904Y-88054285D01*
X137764285Y-87863809D01*
X137764285Y-87720952D01*
X137811904Y-87530476D01*
X137859523Y-87435238D01*
X137954761Y-87340000D01*
X138097619Y-87292380D01*
X138192857Y-87292380D01*
X138335714Y-87340000D01*
X138383333Y-87387619D01*
X139288095Y-87292380D02*
X138811904Y-87292380D01*
X138764285Y-87768571D01*
X138811904Y-87720952D01*
X138907142Y-87673333D01*
X139145238Y-87673333D01*
X139240476Y-87720952D01*
X139288095Y-87768571D01*
X139335714Y-87863809D01*
X139335714Y-88101904D01*
X139288095Y-88197142D01*
X139240476Y-88244761D01*
X139145238Y-88292380D01*
X138907142Y-88292380D01*
X138811904Y-88244761D01*
X138764285Y-88197142D01*
%TO.C,C7*%
X138527142Y-106016666D02*
X138574761Y-106064285D01*
X138622380Y-106207142D01*
X138622380Y-106302380D01*
X138574761Y-106445238D01*
X138479523Y-106540476D01*
X138384285Y-106588095D01*
X138193809Y-106635714D01*
X138050952Y-106635714D01*
X137860476Y-106588095D01*
X137765238Y-106540476D01*
X137670000Y-106445238D01*
X137622380Y-106302380D01*
X137622380Y-106207142D01*
X137670000Y-106064285D01*
X137717619Y-106016666D01*
X137622380Y-105683333D02*
X137622380Y-105016666D01*
X138622380Y-105445238D01*
%TO.C,U1*%
X133908095Y-90712380D02*
X133908095Y-91521904D01*
X133955714Y-91617142D01*
X134003333Y-91664761D01*
X134098571Y-91712380D01*
X134289047Y-91712380D01*
X134384285Y-91664761D01*
X134431904Y-91617142D01*
X134479523Y-91521904D01*
X134479523Y-90712380D01*
X135479523Y-91712380D02*
X134908095Y-91712380D01*
X135193809Y-91712380D02*
X135193809Y-90712380D01*
X135098571Y-90855238D01*
X135003333Y-90950476D01*
X134908095Y-90998095D01*
%TO.C,C9*%
X122347142Y-105726666D02*
X122394761Y-105774285D01*
X122442380Y-105917142D01*
X122442380Y-106012380D01*
X122394761Y-106155238D01*
X122299523Y-106250476D01*
X122204285Y-106298095D01*
X122013809Y-106345714D01*
X121870952Y-106345714D01*
X121680476Y-106298095D01*
X121585238Y-106250476D01*
X121490000Y-106155238D01*
X121442380Y-106012380D01*
X121442380Y-105917142D01*
X121490000Y-105774285D01*
X121537619Y-105726666D01*
X122442380Y-105250476D02*
X122442380Y-105060000D01*
X122394761Y-104964761D01*
X122347142Y-104917142D01*
X122204285Y-104821904D01*
X122013809Y-104774285D01*
X121632857Y-104774285D01*
X121537619Y-104821904D01*
X121490000Y-104869523D01*
X121442380Y-104964761D01*
X121442380Y-105155238D01*
X121490000Y-105250476D01*
X121537619Y-105298095D01*
X121632857Y-105345714D01*
X121870952Y-105345714D01*
X121966190Y-105298095D01*
X122013809Y-105250476D01*
X122061428Y-105155238D01*
X122061428Y-104964761D01*
X122013809Y-104869523D01*
X121966190Y-104821904D01*
X121870952Y-104774285D01*
%TO.C,C16*%
X141987142Y-97767857D02*
X142034761Y-97815476D01*
X142082380Y-97958333D01*
X142082380Y-98053571D01*
X142034761Y-98196428D01*
X141939523Y-98291666D01*
X141844285Y-98339285D01*
X141653809Y-98386904D01*
X141510952Y-98386904D01*
X141320476Y-98339285D01*
X141225238Y-98291666D01*
X141130000Y-98196428D01*
X141082380Y-98053571D01*
X141082380Y-97958333D01*
X141130000Y-97815476D01*
X141177619Y-97767857D01*
X142082380Y-96815476D02*
X142082380Y-97386904D01*
X142082380Y-97101190D02*
X141082380Y-97101190D01*
X141225238Y-97196428D01*
X141320476Y-97291666D01*
X141368095Y-97386904D01*
X141082380Y-95958333D02*
X141082380Y-96148809D01*
X141130000Y-96244047D01*
X141177619Y-96291666D01*
X141320476Y-96386904D01*
X141510952Y-96434523D01*
X141891904Y-96434523D01*
X141987142Y-96386904D01*
X142034761Y-96339285D01*
X142082380Y-96244047D01*
X142082380Y-96053571D01*
X142034761Y-95958333D01*
X141987142Y-95910714D01*
X141891904Y-95863095D01*
X141653809Y-95863095D01*
X141558571Y-95910714D01*
X141510952Y-95958333D01*
X141463333Y-96053571D01*
X141463333Y-96244047D01*
X141510952Y-96339285D01*
X141558571Y-96386904D01*
X141653809Y-96434523D01*
%TO.C,L1*%
X135322619Y-99123333D02*
X135322619Y-98647142D01*
X136322619Y-98647142D01*
X135322619Y-99980476D02*
X135322619Y-99409047D01*
X135322619Y-99694761D02*
X136322619Y-99694761D01*
X136179761Y-99599523D01*
X136084523Y-99504285D01*
X136036904Y-99409047D01*
%TO.C,C10*%
X142057142Y-106832857D02*
X142104761Y-106880476D01*
X142152380Y-107023333D01*
X142152380Y-107118571D01*
X142104761Y-107261428D01*
X142009523Y-107356666D01*
X141914285Y-107404285D01*
X141723809Y-107451904D01*
X141580952Y-107451904D01*
X141390476Y-107404285D01*
X141295238Y-107356666D01*
X141200000Y-107261428D01*
X141152380Y-107118571D01*
X141152380Y-107023333D01*
X141200000Y-106880476D01*
X141247619Y-106832857D01*
X142152380Y-105880476D02*
X142152380Y-106451904D01*
X142152380Y-106166190D02*
X141152380Y-106166190D01*
X141295238Y-106261428D01*
X141390476Y-106356666D01*
X141438095Y-106451904D01*
X141152380Y-105261428D02*
X141152380Y-105166190D01*
X141200000Y-105070952D01*
X141247619Y-105023333D01*
X141342857Y-104975714D01*
X141533333Y-104928095D01*
X141771428Y-104928095D01*
X141961904Y-104975714D01*
X142057142Y-105023333D01*
X142104761Y-105070952D01*
X142152380Y-105166190D01*
X142152380Y-105261428D01*
X142104761Y-105356666D01*
X142057142Y-105404285D01*
X141961904Y-105451904D01*
X141771428Y-105499523D01*
X141533333Y-105499523D01*
X141342857Y-105451904D01*
X141247619Y-105404285D01*
X141200000Y-105356666D01*
X141152380Y-105261428D01*
%TO.C,C4*%
X137047142Y-96621666D02*
X137094761Y-96669285D01*
X137142380Y-96812142D01*
X137142380Y-96907380D01*
X137094761Y-97050238D01*
X136999523Y-97145476D01*
X136904285Y-97193095D01*
X136713809Y-97240714D01*
X136570952Y-97240714D01*
X136380476Y-97193095D01*
X136285238Y-97145476D01*
X136190000Y-97050238D01*
X136142380Y-96907380D01*
X136142380Y-96812142D01*
X136190000Y-96669285D01*
X136237619Y-96621666D01*
X136475714Y-95764523D02*
X137142380Y-95764523D01*
X136094761Y-96002619D02*
X136809047Y-96240714D01*
X136809047Y-95621666D01*
%TO.C,C6*%
X127307142Y-89916666D02*
X127354761Y-89964285D01*
X127402380Y-90107142D01*
X127402380Y-90202380D01*
X127354761Y-90345238D01*
X127259523Y-90440476D01*
X127164285Y-90488095D01*
X126973809Y-90535714D01*
X126830952Y-90535714D01*
X126640476Y-90488095D01*
X126545238Y-90440476D01*
X126450000Y-90345238D01*
X126402380Y-90202380D01*
X126402380Y-90107142D01*
X126450000Y-89964285D01*
X126497619Y-89916666D01*
X126402380Y-89059523D02*
X126402380Y-89250000D01*
X126450000Y-89345238D01*
X126497619Y-89392857D01*
X126640476Y-89488095D01*
X126830952Y-89535714D01*
X127211904Y-89535714D01*
X127307142Y-89488095D01*
X127354761Y-89440476D01*
X127402380Y-89345238D01*
X127402380Y-89154761D01*
X127354761Y-89059523D01*
X127307142Y-89011904D01*
X127211904Y-88964285D01*
X126973809Y-88964285D01*
X126878571Y-89011904D01*
X126830952Y-89059523D01*
X126783333Y-89154761D01*
X126783333Y-89345238D01*
X126830952Y-89440476D01*
X126878571Y-89488095D01*
X126973809Y-89535714D01*
%TO.C,C3*%
X139137142Y-96731666D02*
X139184761Y-96779285D01*
X139232380Y-96922142D01*
X139232380Y-97017380D01*
X139184761Y-97160238D01*
X139089523Y-97255476D01*
X138994285Y-97303095D01*
X138803809Y-97350714D01*
X138660952Y-97350714D01*
X138470476Y-97303095D01*
X138375238Y-97255476D01*
X138280000Y-97160238D01*
X138232380Y-97017380D01*
X138232380Y-96922142D01*
X138280000Y-96779285D01*
X138327619Y-96731666D01*
X138232380Y-96398333D02*
X138232380Y-95779285D01*
X138613333Y-96112619D01*
X138613333Y-95969761D01*
X138660952Y-95874523D01*
X138708571Y-95826904D01*
X138803809Y-95779285D01*
X139041904Y-95779285D01*
X139137142Y-95826904D01*
X139184761Y-95874523D01*
X139232380Y-95969761D01*
X139232380Y-96255476D01*
X139184761Y-96350714D01*
X139137142Y-96398333D01*
D11*
%TO.C,R4*%
X133010000Y-89106359D02*
X133010000Y-89413641D01*
X132250000Y-89106359D02*
X132250000Y-89413641D01*
%TO.C,R3*%
X132070000Y-86526359D02*
X132070000Y-86833641D01*
X131310000Y-86526359D02*
X131310000Y-86833641D01*
%TO.C,R2*%
X152383641Y-92090000D02*
X152076359Y-92090000D01*
X152383641Y-91330000D02*
X152076359Y-91330000D01*
%TO.C,R1*%
X157293641Y-92080000D02*
X156986359Y-92080000D01*
X157293641Y-91320000D02*
X156986359Y-91320000D01*
%TO.C,kibuzzard-62A80F52*%
G36*
X104533747Y-88585879D02*
G01*
X111490172Y-88585879D01*
X112586253Y-90230000D01*
X111490172Y-91874121D01*
X104533747Y-91874121D01*
X104533747Y-89247338D01*
X105724372Y-89247338D01*
X105760885Y-89425138D01*
X105813272Y-89647387D01*
X105855253Y-89813722D01*
X105900761Y-89986760D01*
X105949797Y-90166500D01*
X106001656Y-90349768D01*
X106055631Y-90533389D01*
X106111722Y-90717363D01*
X106195066Y-90979300D01*
X106273647Y-91212663D01*
X106676872Y-91212663D01*
X107442047Y-91212663D01*
X108689822Y-91212663D01*
X109004147Y-91212663D01*
X109356572Y-91212663D01*
X109356572Y-89907737D01*
X109474576Y-90125578D01*
X109587289Y-90343065D01*
X109694710Y-90560200D01*
X109796839Y-90777335D01*
X109893676Y-90994822D01*
X109985222Y-91212663D01*
X110299547Y-91212663D01*
X110299547Y-89247338D01*
X109947122Y-89247338D01*
X109947122Y-90457013D01*
X109891163Y-90333188D01*
X109824885Y-90190312D01*
X109750272Y-90035531D01*
X109669310Y-89875987D01*
X109583982Y-89713666D01*
X109496272Y-89550550D01*
X109407372Y-89392991D01*
X109318472Y-89247338D01*
X109004147Y-89247338D01*
X109004147Y-91212663D01*
X108689822Y-91212663D01*
X108689822Y-90888813D01*
X108264372Y-90888813D01*
X108264372Y-89571188D01*
X108689822Y-89571188D01*
X108689822Y-89247338D01*
X107442047Y-89247338D01*
X107442047Y-89571188D01*
X107870672Y-89571188D01*
X107870672Y-90888813D01*
X107442047Y-90888813D01*
X107442047Y-91212663D01*
X106676872Y-91212663D01*
X106737550Y-91043506D01*
X106796817Y-90870468D01*
X106854672Y-90693550D01*
X106910235Y-90515750D01*
X106962622Y-90340067D01*
X107011835Y-90166500D01*
X107079303Y-89913691D01*
X107138835Y-89672787D01*
X107190032Y-89448950D01*
X107232497Y-89247338D01*
X106822922Y-89247338D01*
X106794347Y-89412437D01*
X106759422Y-89602937D01*
X106719735Y-89808916D01*
X106676872Y-90020450D01*
X106630835Y-90233175D01*
X106581622Y-90442725D01*
X106530822Y-90639178D01*
X106480022Y-90812613D01*
X106428825Y-90636797D01*
X106376835Y-90439550D01*
X106326035Y-90230000D01*
X106278410Y-90017275D01*
X106234357Y-89806138D01*
X106194272Y-89601350D01*
X106160935Y-89412041D01*
X106137122Y-89247338D01*
X105724372Y-89247338D01*
X104533747Y-89247338D01*
X104533747Y-88585879D01*
G37*
%TO.C,kibuzzard-62A80EF8*%
G36*
X149282750Y-96991987D02*
G01*
X149412925Y-97139625D01*
X149479600Y-97352350D01*
X149498650Y-97600000D01*
X149492697Y-97740097D01*
X149474837Y-97868287D01*
X149395463Y-98079425D01*
X149249413Y-98219125D01*
X149025575Y-98269925D01*
X148990650Y-98269925D01*
X148955725Y-98266750D01*
X148955725Y-96945950D01*
X149012875Y-96938012D01*
X149070025Y-96936425D01*
X149282750Y-96991987D01*
G37*
G36*
X145006830Y-99278860D02*
G01*
X144843069Y-99254568D01*
X144682478Y-99214342D01*
X144526603Y-99158569D01*
X144376945Y-99087786D01*
X144234946Y-99002675D01*
X144101972Y-98904056D01*
X143979306Y-98792877D01*
X143868128Y-98670211D01*
X143769508Y-98537238D01*
X143684397Y-98395238D01*
X143613614Y-98245581D01*
X143557841Y-98089705D01*
X143517615Y-97929114D01*
X143493323Y-97765353D01*
X143485200Y-97600000D01*
X145304475Y-97600000D01*
X145318762Y-97838522D01*
X145361625Y-98046087D01*
X145430681Y-98222300D01*
X145523550Y-98366762D01*
X145639041Y-98479475D01*
X145775962Y-98560437D01*
X145932728Y-98609253D01*
X146107750Y-98625525D01*
X146301822Y-98617588D01*
X146464937Y-98593775D01*
X146501185Y-98584250D01*
X146952300Y-98584250D01*
X147304725Y-98584250D01*
X147304725Y-97279325D01*
X147422729Y-97497165D01*
X147535442Y-97714653D01*
X147642862Y-97931787D01*
X147744992Y-98148922D01*
X147841829Y-98366410D01*
X147933375Y-98584250D01*
X148247700Y-98584250D01*
X148247700Y-98562025D01*
X148565200Y-98562025D01*
X148779513Y-98598537D01*
X148984300Y-98609650D01*
X149175991Y-98595759D01*
X149351013Y-98554087D01*
X149506191Y-98482253D01*
X149638350Y-98377875D01*
X149745903Y-98239366D01*
X149827262Y-98065137D01*
X149878459Y-97852809D01*
X149895525Y-97600000D01*
X149880047Y-97352747D01*
X149833613Y-97144387D01*
X149759397Y-96972144D01*
X149660575Y-96833237D01*
X149537147Y-96727272D01*
X149389113Y-96653850D01*
X149220441Y-96610987D01*
X149035100Y-96596700D01*
X148816025Y-96606225D01*
X148565200Y-96644325D01*
X148565200Y-98562025D01*
X148247700Y-98562025D01*
X148247700Y-96618925D01*
X147895275Y-96618925D01*
X147895275Y-97828600D01*
X147839316Y-97704775D01*
X147773037Y-97561900D01*
X147698425Y-97407119D01*
X147617463Y-97247575D01*
X147532134Y-97085253D01*
X147444425Y-96922137D01*
X147355525Y-96764578D01*
X147266625Y-96618925D01*
X146952300Y-96618925D01*
X146952300Y-98584250D01*
X146501185Y-98584250D01*
X146682425Y-98536625D01*
X146682425Y-97555550D01*
X146291900Y-97555550D01*
X146291900Y-98273100D01*
X146215700Y-98282625D01*
X146139500Y-98285800D01*
X145949794Y-98244128D01*
X145812475Y-98119113D01*
X145750739Y-97987350D01*
X145713697Y-97814312D01*
X145701350Y-97600000D01*
X145708097Y-97454347D01*
X145728337Y-97322187D01*
X145817238Y-97106287D01*
X145974400Y-96965000D01*
X146209350Y-96914200D01*
X146418900Y-96949125D01*
X146590350Y-97028500D01*
X146691950Y-96717350D01*
X146626862Y-96679250D01*
X146517325Y-96631625D01*
X146360162Y-96591937D01*
X146155375Y-96574475D01*
X145983131Y-96590747D01*
X145822000Y-96639562D01*
X145676744Y-96720922D01*
X145552125Y-96834825D01*
X145449731Y-96980478D01*
X145371150Y-97157087D01*
X145321144Y-97363859D01*
X145304475Y-97600000D01*
X143485200Y-97600000D01*
X143493323Y-97434647D01*
X143517615Y-97270886D01*
X143557841Y-97110295D01*
X143613614Y-96954419D01*
X143684397Y-96804762D01*
X143769508Y-96662762D01*
X143868128Y-96529789D01*
X143979306Y-96407123D01*
X144101972Y-96295944D01*
X144234946Y-96197325D01*
X144376945Y-96112214D01*
X144526603Y-96041431D01*
X144682478Y-95985658D01*
X144843069Y-95945432D01*
X145006830Y-95921140D01*
X145172183Y-95913017D01*
X150027817Y-95913017D01*
X150193170Y-95921140D01*
X150356931Y-95945432D01*
X150517522Y-95985658D01*
X150673397Y-96041431D01*
X150823055Y-96112214D01*
X150965054Y-96197325D01*
X151098028Y-96295944D01*
X151220694Y-96407123D01*
X151331872Y-96529789D01*
X151430492Y-96662762D01*
X151515603Y-96804762D01*
X151586386Y-96954419D01*
X151642159Y-97110295D01*
X151682385Y-97270886D01*
X151706677Y-97434647D01*
X151714800Y-97600000D01*
X151706677Y-97765353D01*
X151682385Y-97929114D01*
X151642159Y-98089705D01*
X151586386Y-98245581D01*
X151515603Y-98395238D01*
X151430492Y-98537238D01*
X151331872Y-98670211D01*
X151220694Y-98792877D01*
X151098028Y-98904056D01*
X150965054Y-99002675D01*
X150823055Y-99087786D01*
X150673397Y-99158569D01*
X150517522Y-99214342D01*
X150356931Y-99254568D01*
X150193170Y-99278860D01*
X150027817Y-99286983D01*
X145172183Y-99286983D01*
X145006830Y-99278860D01*
G37*
G36*
X105616830Y-99278860D02*
G01*
X105453069Y-99254568D01*
X105292478Y-99214342D01*
X105136603Y-99158569D01*
X104986945Y-99087786D01*
X104844946Y-99002675D01*
X104711972Y-98904056D01*
X104589306Y-98792877D01*
X104478128Y-98670211D01*
X104379508Y-98537238D01*
X104294397Y-98395238D01*
X104223614Y-98245581D01*
X104167841Y-98089705D01*
X104127615Y-97929114D01*
X104103323Y-97765353D01*
X104095200Y-97600000D01*
X105914475Y-97600000D01*
X105928762Y-97838522D01*
X105971625Y-98046087D01*
X106040681Y-98222300D01*
X106133550Y-98366762D01*
X106249041Y-98479475D01*
X106385962Y-98560437D01*
X106542728Y-98609253D01*
X106717750Y-98625525D01*
X106911822Y-98617588D01*
X107074937Y-98593775D01*
X107111185Y-98584250D01*
X107562300Y-98584250D01*
X107914725Y-98584250D01*
X107914725Y-97279325D01*
X108032729Y-97497165D01*
X108145442Y-97714653D01*
X108252862Y-97931787D01*
X108354992Y-98148922D01*
X108451829Y-98366410D01*
X108543375Y-98584250D01*
X108857700Y-98584250D01*
X108857700Y-98562025D01*
X109175200Y-98562025D01*
X109389513Y-98598537D01*
X109594300Y-98609650D01*
X109785991Y-98595759D01*
X109961013Y-98554087D01*
X110116191Y-98482253D01*
X110248350Y-98377875D01*
X110355903Y-98239366D01*
X110437262Y-98065137D01*
X110488459Y-97852809D01*
X110505525Y-97600000D01*
X110490047Y-97352747D01*
X110443613Y-97144387D01*
X110369397Y-96972144D01*
X110270575Y-96833237D01*
X110147147Y-96727272D01*
X109999113Y-96653850D01*
X109830441Y-96610987D01*
X109645100Y-96596700D01*
X109426025Y-96606225D01*
X109175200Y-96644325D01*
X109175200Y-98562025D01*
X108857700Y-98562025D01*
X108857700Y-96618925D01*
X108505275Y-96618925D01*
X108505275Y-97828600D01*
X108449316Y-97704775D01*
X108383037Y-97561900D01*
X108308425Y-97407119D01*
X108227463Y-97247575D01*
X108142134Y-97085253D01*
X108054425Y-96922137D01*
X107965525Y-96764578D01*
X107876625Y-96618925D01*
X107562300Y-96618925D01*
X107562300Y-98584250D01*
X107111185Y-98584250D01*
X107292425Y-98536625D01*
X107292425Y-97555550D01*
X106901900Y-97555550D01*
X106901900Y-98273100D01*
X106825700Y-98282625D01*
X106749500Y-98285800D01*
X106559794Y-98244128D01*
X106422475Y-98119113D01*
X106360739Y-97987350D01*
X106323697Y-97814312D01*
X106311350Y-97600000D01*
X106318097Y-97454347D01*
X106338337Y-97322187D01*
X106427238Y-97106287D01*
X106584400Y-96965000D01*
X106819350Y-96914200D01*
X107028900Y-96949125D01*
X107200350Y-97028500D01*
X107301950Y-96717350D01*
X107236862Y-96679250D01*
X107127325Y-96631625D01*
X106970162Y-96591937D01*
X106765375Y-96574475D01*
X106593131Y-96590747D01*
X106432000Y-96639562D01*
X106286744Y-96720922D01*
X106162125Y-96834825D01*
X106059731Y-96980478D01*
X105981150Y-97157087D01*
X105931144Y-97363859D01*
X105914475Y-97600000D01*
X104095200Y-97600000D01*
X104103323Y-97434647D01*
X104127615Y-97270886D01*
X104167841Y-97110295D01*
X104223614Y-96954419D01*
X104294397Y-96804762D01*
X104379508Y-96662762D01*
X104478128Y-96529789D01*
X104589306Y-96407123D01*
X104711972Y-96295944D01*
X104844946Y-96197325D01*
X104986945Y-96112214D01*
X105136603Y-96041431D01*
X105292478Y-95985658D01*
X105453069Y-95945432D01*
X105616830Y-95921140D01*
X105782183Y-95913017D01*
X110637817Y-95913017D01*
X110803170Y-95921140D01*
X110966931Y-95945432D01*
X111127522Y-95985658D01*
X111283397Y-96041431D01*
X111433055Y-96112214D01*
X111575054Y-96197325D01*
X111708028Y-96295944D01*
X111830694Y-96407123D01*
X111941872Y-96529789D01*
X112040492Y-96662762D01*
X112125603Y-96804762D01*
X112196386Y-96954419D01*
X112252159Y-97110295D01*
X112292385Y-97270886D01*
X112316677Y-97434647D01*
X112324800Y-97600000D01*
X112316677Y-97765353D01*
X112292385Y-97929114D01*
X112252159Y-98089705D01*
X112196386Y-98245581D01*
X112125603Y-98395238D01*
X112040492Y-98537238D01*
X111941872Y-98670211D01*
X111830694Y-98792877D01*
X111708028Y-98904056D01*
X111575054Y-99002675D01*
X111433055Y-99087786D01*
X111283397Y-99158569D01*
X111127522Y-99214342D01*
X110966931Y-99254568D01*
X110803170Y-99278860D01*
X110637817Y-99286983D01*
X105782183Y-99286983D01*
X105616830Y-99278860D01*
G37*
G36*
X109892750Y-96991987D02*
G01*
X110022925Y-97139625D01*
X110089600Y-97352350D01*
X110108650Y-97600000D01*
X110102697Y-97740097D01*
X110084837Y-97868287D01*
X110005463Y-98079425D01*
X109859413Y-98219125D01*
X109635575Y-98269925D01*
X109600650Y-98269925D01*
X109565725Y-98266750D01*
X109565725Y-96945950D01*
X109622875Y-96938012D01*
X109680025Y-96936425D01*
X109892750Y-96991987D01*
G37*
%TO.C,kibuzzard-62A80E9C*%
G36*
X143531539Y-103363017D02*
G01*
X151083806Y-103363017D01*
X152208461Y-105050000D01*
X151083806Y-106736983D01*
X143531539Y-106736983D01*
X143531539Y-104068925D01*
X144192997Y-104068925D01*
X144229510Y-104246725D01*
X144281897Y-104468975D01*
X144323878Y-104635310D01*
X144369386Y-104808347D01*
X144418422Y-104988087D01*
X144470281Y-105171356D01*
X144524256Y-105354976D01*
X144580347Y-105538950D01*
X144663691Y-105800887D01*
X144742272Y-106034250D01*
X145145497Y-106034250D01*
X145206175Y-105865093D01*
X145265442Y-105692056D01*
X145323297Y-105515137D01*
X145378860Y-105337338D01*
X145431247Y-105161654D01*
X145462905Y-105050000D01*
X145824947Y-105050000D01*
X145836357Y-105288423D01*
X145870588Y-105495691D01*
X145927639Y-105671804D01*
X146007510Y-105816762D01*
X146147386Y-105960519D01*
X146323599Y-106046774D01*
X146536147Y-106075525D01*
X146743581Y-106046774D01*
X146917147Y-105960519D01*
X147056847Y-105816762D01*
X147137413Y-105671804D01*
X147194960Y-105495691D01*
X147223720Y-105323050D01*
X147450547Y-105323050D01*
X147458485Y-105486562D01*
X147482297Y-105634200D01*
X147525160Y-105763581D01*
X147590247Y-105872325D01*
X147795035Y-106023137D01*
X147939100Y-106062428D01*
X148114122Y-106075525D01*
X148291922Y-106062428D01*
X148437972Y-106023137D01*
X148555447Y-105959241D01*
X148647522Y-105872325D01*
X148714991Y-105763581D01*
X148758647Y-105634200D01*
X148782460Y-105486562D01*
X148790397Y-105323050D01*
X148790397Y-104392775D01*
X148993597Y-104392775D01*
X149511122Y-104392775D01*
X149511122Y-106034250D01*
X149904822Y-106034250D01*
X149904822Y-104392775D01*
X150422347Y-104392775D01*
X150422347Y-104068925D01*
X148993597Y-104068925D01*
X148993597Y-104392775D01*
X148790397Y-104392775D01*
X148790397Y-104068925D01*
X148399872Y-104068925D01*
X148399872Y-105294475D01*
X148387172Y-105502437D01*
X148342722Y-105638962D01*
X148256997Y-105713575D01*
X148120472Y-105735800D01*
X147983947Y-105713575D01*
X147899810Y-105640550D01*
X147856947Y-105505612D01*
X147844247Y-105297650D01*
X147844247Y-104068925D01*
X147450547Y-104068925D01*
X147450547Y-105323050D01*
X147223720Y-105323050D01*
X147229488Y-105288423D01*
X147240997Y-105050000D01*
X147229686Y-104811577D01*
X147195753Y-104604309D01*
X147139199Y-104428196D01*
X147060022Y-104283237D01*
X146921028Y-104139481D01*
X146745344Y-104053226D01*
X146532972Y-104024475D01*
X146326950Y-104053226D01*
X146153383Y-104139481D01*
X146012272Y-104283237D01*
X145930318Y-104428196D01*
X145871778Y-104604309D01*
X145836655Y-104811577D01*
X145824947Y-105050000D01*
X145462905Y-105050000D01*
X145480460Y-104988087D01*
X145547928Y-104735278D01*
X145607460Y-104494375D01*
X145658657Y-104270537D01*
X145701122Y-104068925D01*
X145291547Y-104068925D01*
X145262972Y-104234025D01*
X145228047Y-104424525D01*
X145188360Y-104630503D01*
X145145497Y-104842037D01*
X145099460Y-105054762D01*
X145050247Y-105264312D01*
X144999447Y-105460766D01*
X144948647Y-105634200D01*
X144897450Y-105458384D01*
X144845460Y-105261137D01*
X144794660Y-105051587D01*
X144747035Y-104838862D01*
X144702982Y-104627725D01*
X144662897Y-104422937D01*
X144629560Y-104233628D01*
X144605747Y-104068925D01*
X144192997Y-104068925D01*
X143531539Y-104068925D01*
X143531539Y-103363017D01*
G37*
G36*
X146694897Y-104418175D02*
G01*
X146788560Y-104564225D01*
X146833010Y-104781712D01*
X146841344Y-104911491D01*
X146844122Y-105050000D01*
X146841344Y-105188112D01*
X146833010Y-105316700D01*
X146788560Y-105534187D01*
X146693310Y-105681825D01*
X146532972Y-105735800D01*
X146371047Y-105681825D01*
X146277385Y-105535775D01*
X146232935Y-105318287D01*
X146224600Y-105188509D01*
X146221822Y-105050000D01*
X146224600Y-104911887D01*
X146232935Y-104783300D01*
X146277385Y-104565812D01*
X146371047Y-104418175D01*
X146532972Y-104364200D01*
X146694897Y-104418175D01*
G37*
%TO.C,J1*%
X95310000Y-94350000D02*
X103310000Y-94350000D01*
X103310000Y-94350000D02*
X103310000Y-100850000D01*
X103310000Y-100850000D02*
X95310000Y-100850000D01*
X95310000Y-100850000D02*
X95310000Y-94350000D01*
%TO.C,C2*%
X127730000Y-93699420D02*
X127730000Y-93980580D01*
X126710000Y-93699420D02*
X126710000Y-93980580D01*
%TO.C,C15*%
X122485000Y-93578748D02*
X122485000Y-94101252D01*
X121015000Y-93578748D02*
X121015000Y-94101252D01*
%TO.C,J3*%
X151510000Y-90090000D02*
X151510000Y-87430000D01*
X151510000Y-90090000D02*
X159190000Y-90090000D01*
X148910000Y-90090000D02*
X148910000Y-88760000D01*
X150240000Y-90090000D02*
X148910000Y-90090000D01*
X151510000Y-87430000D02*
X159190000Y-87430000D01*
X159190000Y-90090000D02*
X159190000Y-87430000D01*
%TO.C,C8*%
X125120000Y-102871252D02*
X125120000Y-101448748D01*
X126940000Y-102871252D02*
X126940000Y-101448748D01*
%TO.C,C1*%
X125355000Y-93578748D02*
X125355000Y-94101252D01*
X123885000Y-93578748D02*
X123885000Y-94101252D01*
%TO.C,J2*%
X95190000Y-93530000D02*
X95190000Y-87030000D01*
X103190000Y-93530000D02*
X95190000Y-93530000D01*
X95190000Y-87030000D02*
X103190000Y-87030000D01*
X103190000Y-87030000D02*
X103190000Y-93530000D01*
%TO.C,C5*%
X135849420Y-88350000D02*
X136130580Y-88350000D01*
X135849420Y-87330000D02*
X136130580Y-87330000D01*
%TO.C,C7*%
X137040000Y-102871252D02*
X137040000Y-101448748D01*
X138860000Y-102871252D02*
X138860000Y-101448748D01*
%TO.C,U1*%
D12*
X129136120Y-92095000D02*
G75*
G03*
X129136120Y-92095000I-156120J0D01*
G01*
D11*
X129780000Y-91280000D02*
X133280000Y-91280000D01*
X133280000Y-91280000D02*
X133280000Y-95280000D01*
X133280000Y-95280000D02*
X129780000Y-95280000D01*
X129780000Y-95280000D02*
X129780000Y-91280000D01*
%TO.C,C9*%
X120960000Y-102871252D02*
X120960000Y-101448748D01*
X122780000Y-102871252D02*
X122780000Y-101448748D01*
%TO.C,C16*%
X142365000Y-93573748D02*
X142365000Y-94096252D01*
X140895000Y-93573748D02*
X140895000Y-94096252D01*
%TO.C,L1*%
X134730000Y-97210000D02*
X128330000Y-97210000D01*
X128330000Y-97210000D02*
X128330000Y-106810000D01*
X128330000Y-106810000D02*
X134730000Y-106810000D01*
X134730000Y-106810000D02*
X134730000Y-97210000D01*
%TO.C,C10*%
X142630000Y-102871252D02*
X142630000Y-101448748D01*
X140810000Y-102871252D02*
X140810000Y-101448748D01*
%TO.C,J4*%
X152600000Y-101790000D02*
X160600000Y-101790000D01*
X160600000Y-108290000D02*
X152600000Y-108290000D01*
X152600000Y-108290000D02*
X152600000Y-101790000D01*
X160600000Y-101790000D02*
X160600000Y-108290000D01*
%TO.C,C4*%
X135780000Y-93709420D02*
X135780000Y-93990580D01*
X136800000Y-93709420D02*
X136800000Y-93990580D01*
%TO.C,C6*%
X125010000Y-89609420D02*
X125010000Y-89890580D01*
X126030000Y-89609420D02*
X126030000Y-89890580D01*
%TO.C,J5*%
X152610000Y-100850000D02*
X152610000Y-94350000D01*
X152610000Y-94350000D02*
X160610000Y-94350000D01*
X160610000Y-100850000D02*
X152610000Y-100850000D01*
X160610000Y-94350000D02*
X160610000Y-100850000D01*
%TO.C,C3*%
X139455000Y-93573748D02*
X139455000Y-94096252D01*
X137985000Y-93573748D02*
X137985000Y-94096252D01*
%TD*%
%LPC*%
D13*
%TO.C,R4*%
X132630000Y-88750000D03*
X132630000Y-89770000D03*
%TD*%
%TO.C,R3*%
X131690000Y-86170000D03*
X131690000Y-87190000D03*
%TD*%
D14*
%TO.C,R2*%
X152740000Y-91710000D03*
X151720000Y-91710000D03*
%TD*%
%TO.C,R1*%
X157650000Y-91700000D03*
X156630000Y-91700000D03*
%TD*%
D15*
%TO.C,J1*%
X101850000Y-97600000D03*
X96770000Y-97600000D03*
%TD*%
D16*
%TO.C,C2*%
X127220000Y-93065000D03*
X127220000Y-94615000D03*
%TD*%
D17*
%TO.C,C15*%
X121750000Y-92890000D03*
X121750000Y-94790000D03*
%TD*%
D18*
%TO.C,J3*%
X150240000Y-88760000D03*
D19*
X152780000Y-88760000D03*
X155320000Y-88760000D03*
X157860000Y-88760000D03*
%TD*%
D20*
%TO.C,C8*%
X126030000Y-103635000D03*
X126030000Y-100685000D03*
%TD*%
D17*
%TO.C,C1*%
X124620000Y-94790000D03*
X124620000Y-92890000D03*
%TD*%
D15*
%TO.C,J2*%
X101730000Y-90280000D03*
X96650000Y-90280000D03*
%TD*%
D21*
%TO.C,C5*%
X135215000Y-87840000D03*
X136765000Y-87840000D03*
%TD*%
D20*
%TO.C,C7*%
X137950000Y-103635000D03*
X137950000Y-100685000D03*
%TD*%
D22*
%TO.C,U1*%
X131530000Y-92980000D03*
D23*
X130380000Y-92055000D03*
D24*
X130755000Y-91492500D03*
D25*
X131280000Y-91442500D03*
X131780000Y-91442500D03*
D24*
X132305000Y-91492500D03*
D26*
X132680000Y-92055000D03*
D27*
X133117500Y-92455000D03*
X133117500Y-92955000D03*
D28*
X133580000Y-93330000D03*
D29*
X132995000Y-94265000D03*
D30*
X133580000Y-93980000D03*
D31*
X131530000Y-94617500D03*
D32*
X129480000Y-93980000D03*
D29*
X130010000Y-94275000D03*
D33*
X129480000Y-93330000D03*
D27*
X129942500Y-92955000D03*
X129942500Y-92455000D03*
%TD*%
D20*
%TO.C,C9*%
X121870000Y-103635000D03*
X121870000Y-100685000D03*
%TD*%
D17*
%TO.C,C16*%
X141630000Y-94785000D03*
X141630000Y-92885000D03*
%TD*%
D34*
%TO.C,L1*%
X131530000Y-98735000D03*
X131530000Y-105285000D03*
%TD*%
D20*
%TO.C,C10*%
X141720000Y-103635000D03*
X141720000Y-100685000D03*
%TD*%
D15*
%TO.C,J4*%
X154060000Y-105040000D03*
X159140000Y-105040000D03*
%TD*%
D16*
%TO.C,C4*%
X136290000Y-93075000D03*
X136290000Y-94625000D03*
%TD*%
%TO.C,C6*%
X125520000Y-90525000D03*
X125520000Y-88975000D03*
%TD*%
D15*
%TO.C,J5*%
X154070000Y-97600000D03*
X159150000Y-97600000D03*
%TD*%
D17*
%TO.C,C3*%
X138720000Y-92885000D03*
X138720000Y-94785000D03*
%TD*%
M02*
